<?xml version="1.0" encoding="UTF-8" standalone="no"?>
<!-- Created with Inkscape (http://www.inkscape.org/) -->

<svg
   xmlns:dc="http://purl.org/dc/elements/1.1/"
   xmlns:cc="http://creativecommons.org/ns#"
   xmlns:rdf="http://www.w3.org/1999/02/22-rdf-syntax-ns#"
   xmlns:svg="http://www.w3.org/2000/svg"
   xmlns="http://www.w3.org/2000/svg"
   xmlns:sodipodi="http://sodipodi.sourceforge.net/DTD/sodipodi-0.dtd"
   xmlns:inkscape="http://www.inkscape.org/namespaces/inkscape"
   width="82.715729mm"
   height="89.868477mm"
   viewBox="0 0 293.08723 318.43161"
   id="svg5124"
   version="1.1"
   inkscape:version="0.91 r13725"
   sodipodi:docname="goblin.svg">
  <defs
     id="defs5126" />
  <sodipodi:namedview
     id="base"
     pagecolor="#ffffff"
     bordercolor="#666666"
     borderopacity="1.0"
     inkscape:pageopacity="0.0"
     inkscape:pageshadow="2"
     inkscape:zoom="1.354582"
     inkscape:cx="151.62214"
     inkscape:cy="153.32576"
     inkscape:document-units="px"
     inkscape:current-layer="layer1"
     showgrid="false"
     fit-margin-top="0"
     fit-margin-left="0"
     fit-margin-right="0"
     fit-margin-bottom="0"
     inkscape:window-width="1366"
     inkscape:window-height="705"
     inkscape:window-x="-8"
     inkscape:window-y="-8"
     inkscape:window-maximized="1" />
  <metadata
     id="metadata5129">
    <rdf:RDF>
      <cc:Work
         rdf:about="">
        <dc:format>image/svg+xml</dc:format>
        <dc:type
           rdf:resource="http://purl.org/dc/dcmitype/StillImage" />
        <dc:title></dc:title>
      </cc:Work>
    </rdf:RDF>
  </metadata>
  <g
     inkscape:label="Layer 1"
     inkscape:groupmode="layer"
     id="layer1"
     transform="translate(84.103303,-293.14639)">
    <path
       style="fill:#87888e;fill-opacity:1;fill-rule:evenodd;stroke:none;stroke-width:1px;stroke-linecap:butt;stroke-linejoin:miter;stroke-opacity:1"
       d="m -28.375661,314.59501 c 42.10582,-4.57672 17.391534,5.49206 43.021164,-4.57672 l 25.629629,-10.06878 c 0,0 40.497546,-3.9518 71.396828,-2.74604 6.8965,0.26912 25.28203,8.53401 32.03703,13.73016 l 11.89948,9.15344 -6.40741,18.30688 c 0,0 -15.56084,-3.15285 -15.56085,0.91534 -4e-5,29.51896 -9.27936,-2.64416 3.66138,29.29101 17.84038,44.02649 21.05291,28.37566 32.03703,56.75132 l 10.98413,28.37566 c 0,0 -8.23809,28.37567 -10.98413,38.44445 l -2.74603,10.06878 c 0,0 37.5291,37.5291 37.5291,35.69841 l 0,-1.83068 -24.71428,22.88359 -37.5291,8.2381 -66.820109,38.44444 -51.259259,-1.83068 c 0,0 -25.6296298,1.83068 -31.1216933,-6.40741 -5.4920637,-8.2381 -17.3915347,21.96825 -6.4074077,-8.2381 10.9841273,-30.20635 25.62963,-36.61375 10.9841273,-30.20635 l -14.6455023,6.40741 -26.544974,-21.96825 c 0,0 -32.952381,-68.6508 -32.952381,-81.46561 0,-12.81482 -17.391534,42.10582 1.830688,-12.81482 l 19.222222,-54.92063 30.206349,-48.51323 z"
       id="path5149"
       inkscape:connector-curvature="0"
       sodipodi:nodetypes="cscssccssscscscccccsssccssccc" />
    <path
       style="fill:#da7742;fill-opacity:1;fill-rule:evenodd;stroke:none;stroke-width:1px;stroke-linecap:butt;stroke-linejoin:miter;stroke-opacity:1"
       d="m -63.669818,440.97853 c 15.342125,-55.99875 13.040806,-58.30007 15.342125,-55.99875 2.301319,2.30132 0,4.60263 0,4.60263 0,0 45.259268,-36.82109 79.011943,-24.5474 33.752674,12.2737 -4.247881,-4.02952 26.848718,15.34212 57.057522,35.54402 60.601392,54.46455 60.601392,54.46455 l 11.5066,52.16322 c 2.25797,10.23617 -65.204036,95.88828 -65.204036,95.88828 L 44.492162,580.59187 1.5342125,562.94842 c 0,0 -44.4921615,-20.71186 -65.2040305,-121.96989 z"
       id="path5691"
       inkscape:connector-curvature="0"
       sodipodi:nodetypes="cscsscscccc" />
    <path
       style="opacity:1;fill:#f2c74a;fill-opacity:1;fill-rule:evenodd;stroke:none;stroke-width:4.5;stroke-linecap:round;stroke-miterlimit:4;stroke-dasharray:none;stroke-opacity:1"
       id="path5693"
       sodipodi:type="arc"
       sodipodi:cx="-193.71274"
       sodipodi:cy="411.78534"
       sodipodi:rx="12.777146"
       sodipodi:ry="9.7958126"
       sodipodi:start="0"
       sodipodi:end="6.2708807"
       d="m -180.93559,411.78534 a 12.777146,9.7958126 0 0 1 -12.73784,9.79577 12.777146,9.7958126 0 0 1 -12.81621,-9.7355 12.777146,9.7958126 0 0 1 12.65899,-9.85567 12.777146,9.7958126 0 0 1 12.89409,9.67487 l -12.77618,0.12053 z"
       transform="matrix(0.93235455,-0.36154528,0.36154528,0.93235455,0,0)" />
    <path
       style="fill:#f2c74a;fill-opacity:1;fill-rule:evenodd;stroke:none;stroke-width:1px;stroke-linecap:butt;stroke-linejoin:miter;stroke-opacity:1"
       d="m 9.6371272,443.41623 c 22.2858568,6.62552 22.2858568,6.62552 22.2858568,6.62552 l 27.706741,-8.43248 -1.806962,-15.05802 -15.660331,0.60232 -19.274255,0.60232 z"
       id="path5695"
       inkscape:connector-curvature="0" />
    <path
       style="fill:#a38b5c;fill-opacity:1;fill-rule:evenodd;stroke:none;stroke-width:1px;stroke-linecap:butt;stroke-linejoin:miter;stroke-opacity:1"
       d="m -6.0232045,515.69468 c 0,0 9.6371272,14.45569 15.6603317,15.05801 6.0232048,0.60232 -13.2510499,5.42089 5.4208838,0.60232 18.671934,-4.81856 18.671934,-4.81856 18.671934,-4.81856 0,0 9.637128,6.62552 23.490498,-14.45569 13.85337,-21.08122 40.957791,-28.30906 14.455691,-21.08122 -26.5021,7.22785 -26.5021,7.22785 -26.5021,7.22785 0,0 -1.806961,9.63713 -51.1972385,17.46729 z"
       id="path5697"
       inkscape:connector-curvature="0" />
    <path
       inkscape:connector-curvature="0"
       style="fill:#000000"
       d="m 106.04873,293.14985 c -2.9324,-0.049 -6.582699,0.4231 -11.564399,1.3711 -3.9483,0.7514 -12.2314,1.2422 -19,1.125 -11.6954,-0.2025 -24.4001,0.8757 -33.5,2.8438 -4.8552,1.0501 -7.0207,1.4972 -14.0527,2.8945 -4.9936,0.9923 -14.748897,4.621 -16.638697,6.1894 -0.6813,0.5655 -6.0594003,0.8755 -12.5020003,0.7207 -11.4009997,-0.274 -18.1628997,0.8561 -22.2499997,3.7188 -1.1009,0.7711 -2.9774,1.4023 -4.1699,1.4023 -1.6734,0 -2.285,0.7415 -2.6836,3.25 -0.284,1.7875 -0.9978,5.05 -1.5859,7.25 -0.588,2.2 -1.0807,7.4765 -1.0938,11.7266 -0.027,8.6514 -1.7087,12.6734 -10.3945,24.8613 -11.2529,15.7902 -13.7532,19.8283 -15.7559,25.4356 -1.1741,3.2871 -2.2827,7.7403 -2.4629,9.8965 -0.1803,2.1563 -0.5572,4.5188 -0.8378,5.25 -0.2806,0.7313 -0.018,1.33 0.582,1.33 0.6963,0 0.618,0.5703 -0.2168,1.5762 -1.0677,1.2866 -1.0701,1.723 -0.016,2.375 0.9102,0.5625 0.9649,1.0007 0.1855,1.4824 -0.6088,0.3762 -1.1074,1.7776 -1.1074,3.1153 0,1.3377 -1.4075,5.6991 -3.127,9.6914 -11.210601,26.0281 -10.939801,25.1846 -11.363201,35.5957 -0.3764,9.2566 1.4811,25.7891 3.1953,28.4355 0.4372,0.6749 0.8006,7.7535 0.8086,15.7285 0.01,10.6494 0.4068,15.3631 1.4941,17.75 0.8143,1.7875 1.7653,3.25 2.1133,3.25 0.8201,0 4.878901,9.4242 4.878901,11.3282 0,0.8017 0.675,1.7166 1.5,2.0332 0.825,0.3166 1.5,1.2601 1.5,2.0976 0,0.8375 1.4446,2.9039 3.2109,4.5918 2.4791,2.3692 2.9028,3.2602 1.8575,3.9063 -3.2944,2.0358 11.2246,8.0429 19.4394,8.0429 4.4934,0 6.7218,1.1671 11.9121,6.2403 4.9715,4.8595 9.8894,7.1518 14.6973,6.8515 4.8133997,-0.3007 5.7029997,1.9917 1.6913997,4.3614 -3.1232997,1.845 -5.8076997,6.8192 -5.8085997,10.7636 -5e-4,2.5487 -3.642,12.7578 -5.0762,14.2325 -1.1018,1.1328 -1.2499,7.5571 -0.1738,7.5371 2.7164,-0.049 5.25,-1.4819 5.25,-2.9668 0,-1.2787 0.684,-1.6702 2.5547,-1.4649 2.0672,0.2269 2.3369,0.018 1.414,-1.0937 -1.3472,-1.6232 -0.4723,-3.461 1.6484997,-3.461 0.825,0 1.2368,0.4269 0.914,0.9493 -0.3229,0.5224 0.326,1.4382 1.4414,2.0351 1.1154,0.597 2.0274,1.7113 2.0274,2.4766 0,0.7654 1.35,2.0995 3,2.9648 1.65000001,0.8652 4.461,2.3366 6.2461,3.2696 5.3569,2.7982 25.7823973,5.7254 28.9374973,4.1464 2.4014,-1.2018 15.4964,-0.8944 20.8164,0.4883 5.3547,1.3916 13.8979,0.9756 16,-0.7793 0.825,-0.6888 3.975,-2.0158 7,-2.9492 8.5486,-2.6376 26.323699,-9.7645 28.078099,-11.2578 0.8683,-0.7391 2.0166,-1.3438 2.5508,-1.3438 0.5342,0 1.4689,-0.4982 2.0781,-1.1074 1.8186,-1.8186 14.5033,-5.8055 18.6172,-5.8515 3.0891,-0.034 3.7583,-0.3772 3.4902,-1.7911 -0.2046,-1.0789 -1.4316,-1.8756 -3.1992,-2.0781 l -2.8672,-0.3301 2.7403,-1.4199 c 3.0225,-1.5681 5.8799,-1.94 3.541,-0.4609 -0.809,0.5117 -1.1991,1.2032 -0.8652,1.5371 0.3338,0.3339 1.5328,-0.5683 2.6621,-2.0039 1.1293,-1.4356 2.9798,-2.6806 4.1132,-2.7656 1.1334,-0.085 2.0606,-0.4546 2.0606,-0.8223 0,-0.3677 1.9907,-1.1705 4.4238,-1.7832 2.4331,-0.6126 5.1443,-1.8358 6.0254,-2.7168 0.881,-0.8811 2.221,-1.363 2.9785,-1.0723 0.7773,0.2982 2.3571,-0.748 3.625,-2.4023 2.1621,-2.8213 5.4205,-3.9047 6.1133,-2.0313 0.1833,0.4958 0.9418,0.2415 1.6856,-0.5664 1.1508,-1.2504 1.0934,-1.4224 -0.3946,-1.1523 -0.9618,0.1745 -1.9703,-0.3567 -2.2402,-1.1817 -0.2698,-0.8254 -0.1319,-1.1668 0.3066,-0.7578 0.4385,0.409 1.4254,-0.1535 2.1934,-1.25 1.4493,-2.0691 7.2832,-2.8636 7.2832,-0.9922 0,0.55 -0.4813,1 -1.0684,1 -0.6132,0 -0.7953,0.8521 -0.4297,2.0039 0.4229,1.3325 0.1092,2.2074 -0.9335,2.6075 -0.8634,0.3311 -1.5684,1.6799 -1.5684,2.9961 0,3.089 2.6143,3.1526 5.8398,0.1425 9.2565,-8.6383 13.1737,-13.306 13.752,-16.3886 0.3469,-1.849 1.0497,-3.3614 1.5625,-3.3614 0.5128,0 2.1502,-1.1307 3.6387,-2.5117 1.4885,-1.3811 3.607,-2.7618 4.707,-3.0683 5.32,-1.4823 11.5,-5.0184 11.5,-6.5801 0,-1.9807 -5.7936,-8.0858 -6.9785,-7.3535 -0.4462,0.2757 -1.0695,-0.1704 -1.3848,-0.9922 -0.7785,-2.0286 -3.3088,-1.8865 -4.5566,0.2558 -0.8907,1.5293 -1.0261,1.4347 -1.0821,-0.75 -0.1283,-5.0385 -6.998,-9.5174 -6.998,-4.5625 0,1.7654 -3.4726,8.1777 -5.5586,10.2637 -2.4365,2.4399 -3.561,5.1065 -2.4375,5.8008 0.5553,0.3432 1.2794,-0.08 1.6094,-0.9395 0.3299,-0.8599 1.1423,-1.5625 1.8047,-1.5625 0.6625,0 2.2033,-0.9312 3.4238,-2.0683 1.2205,-1.1371 2.8898,-1.9246 3.709,-1.75 1.1526,0.2456 0.9188,0.9291 -1.0313,3.0234 -1.386,1.4885 -2.5195,3.1073 -2.5195,3.5957 0,0.4885 -1.0932,2.1595 -2.4297,3.7149 -1.3365,1.5553 -3.173,4.776 -4.082,7.1562 -0.909,2.3802 -2.0658,4.3281 -2.5703,4.3281 -0.5045,0 -0.918,0.9 -0.918,2 0,1.4667 -0.6667,2 -2.5,2 -1.375,0 -2.5,-0.4762 -2.5,-1.0586 0,-0.5825 -0.45,-0.7813 -1,-0.4414 -0.55,0.3399 -1,0.092 -1,-0.5488 0,-0.6415 0.6025,-0.9334 1.3398,-0.6504 1.8126,0.6955 7.0138,-4.9398 6.293,-6.8183 -0.3131,-0.8158 -1.5969,-1.4616 -2.8516,-1.4356 -2.1423,0.045 -3.9917,0.8759 -11.6543,5.2285 -1.7194,0.977 -3.1269,1.3803 -3.1269,0.8965 0,-1.9127 5.0423,-6.1719 7.3066,-6.1719 2.173,0 7.6934,-3.979 7.6934,-5.5449 0,-0.352 0.7875,-1.671 1.75,-2.9316 0.9625,-1.2606 2.425,-3.3002 3.25,-4.5313 0.825,-1.231 2.0625,-2.8246 2.75,-3.5429 0.6875,-0.7183 1.25,-2.184 1.25,-3.2559 0,-1.072 0.6282,-2.4699 1.3965,-3.1074 1.7688,-1.468 0.9932,-4.6857 -2.0703,-8.586 -6.0503,-7.7029 -8.3262,-8.8053 -8.3262,-4.0332 0,1.1733 -0.4119,2.5596 -0.916,3.0821 -1.4963,1.5508 -6.1342,10.735 -5.6602,11.2089 0.5595,0.5598 6.5762,-2.9697 6.5762,-3.8574 0,-0.3672 0.7875,-0.8932 1.75,-1.1699 0.9625,-0.2768 2.65,-0.8481 3.75,-1.2695 2.147,-0.8226 -12.779,13.9504 -15.8262,15.664 -1.6304,0.9169 -1.7034,0.7995 -0.6933,-1.0879 1.1197,-2.0922 0.5656,-6.0371 -0.8477,-6.0371 -0.4029,0 -1.2652,0.5328 -1.916,1.1836 -0.6509,0.6509 -1.4453,0.92 -1.7656,0.5996 -0.3204,-0.3203 0.01,-1.0675 0.7324,-1.6601 8.9921,-7.3634 12.1659,-12.8779 11.6543,-20.2559 -0.1857,-2.6778 0.086,-4.8695 0.6035,-4.8691 0.5177,3e-4 0.1474,-0.578 -0.8223,-1.2871 -2.1309,-1.5581 -1.4143,-5.6826 1.4356,-8.2617 1.0312,-0.9332 2.6078,-4.2182 3.5039,-7.3008 0.8962,-3.0826 2.4038,-6.7399 3.3496,-8.127 2.5878,-3.7959 4.3059,-10.1492 3.6562,-13.5215 -0.3179,-1.65 -0.8054,-9.4255 -1.082,-17.2793 -0.2767,-7.8538 -0.9073,-15.0538 -1.4023,-16 -0.495,-0.9462 -2.0773,-4.5898 -3.5157,-8.0957 -1.4385,-3.5059 -6.5047,-12.0552 -11.2597,-18.998 -4.7549,-6.9429 -9.6639,-15.0988 -10.9082,-18.125 -3.0697,-7.4665 -10.7047,-22.0928 -17.3633,-33.2617 -1.234,-2.07 -1.9611,-4.4837 -1.6191,-5.375 0.3416,-0.8901 0.1193,-2.2222 -0.4922,-2.959 -0.7342,-0.8847 -0.8045,-2.2585 -0.209,-4.0449 1.0167,-3.0501 2.7683,-3.5615 11.5469,-3.3711 3.9576,0.086 5.8871,-0.2847 6.1679,-1.1836 5.1349,-16.4382 4.7813,-19.4401 -3.0039,-25.6055 -7.1912,-5.6949 -13.426,-8.7606 -21.9238,-10.7773 -7.7273,-1.8338 -7.4847,-1.7279 -13.3789,-5.8243 -2.7027,-1.8784 -5.2865,-2.8025 -9.0567,-2.8652 z m -44.064399,8.2656 c 1.1,0 2,0.1721 2,0.3828 0,0.2111 -0.9,0.6187 -2,0.9063 -1.1,0.2877 -2,0.1157 -2,-0.3828 0,-0.4985 0.9,-0.9063 2,-0.9063 z m -4.5899,0.2442 c 1.099,0.04 1.5899,0.3211 1.5899,0.8613 0,0.6707 -0.2459,0.9807 -0.5469,0.6797 -0.7422,-0.7423 -8.2388,1.5265 -8.0801,2.4453 0.069,0.402 -0.8024,1.3813 -1.9394,2.1777 -1.5137,1.0602 -4.9276,1.4254 -12.75,1.3614 -5.8755,-0.048 -10.6836,-0.4495 -10.6836,-0.8907 0,-0.4413 1.9125,-1.3145 4.25,-1.9394 2.3375,-0.625 4.7247,-1.5237 5.3047,-1.9981 0.58,-0.4743 4.405,-1.1096 8.5,-1.4121 4.095,-0.3026 9.3578,-0.7985 11.6953,-1.1015 1.1219,-0.1455 2.0006,-0.2076 2.6601,-0.1836 z m 32.9551,11.1015 c 0.091,0.014 0.1987,0.1677 0.3184,0.4668 0.2888,0.7219 0.2521,1.5838 -0.08,1.9161 -0.3323,0.3323 -0.5684,-0.2584 -0.5254,-1.3125 0.03,-0.7282 0.1355,-1.0933 0.2871,-1.0704 z m -38.4238,0.6543 c 0.5825,0 1.0586,0.45 1.0586,1 0,0.55 -0.1989,1 -0.4414,1 -0.2425,0 -0.7187,-0.45 -1.0586,-1 -0.3399,-0.55 -0.141,-1 0.4414,-1 z m -19.4492,0.2149 0,0 c 0.9814,0.019 1.5078,0.252 1.5078,0.6875 0,0.5983 -0.675,1.0879 -1.5,1.0879 -1.8169,0 -1.9888,1.627 -0.25,2.3652 0.6875,0.2921 -0.4375,0.3909 -2.5,0.2207 -2.0625,-0.1701 -3.75,0.1264 -3.75,0.6602 0,0.5338 -1.0885,0.6989 -2.418,0.3652 -1.483197,-0.3722 -2.572497,-0.1398 -2.820297,0.6035 -0.316,0.953 -1.5498,0.952 -5.6738,0 -2.8981,-0.6689 -5.7713003,-0.9058 -6.3867003,-0.5254 -1.4112,0.8721 -9.29689999,0.4197 -12.25,-0.7031 -1.9522,-0.7422 -2.1625,-0.5755 -1.6954,1.3359 0.5195,2.1232 0.4753,2.1178 -1.6171,-0.2265 -1.1832,-1.3257 -2.4534,-2.1092 -2.8223,-1.7403 -0.3688997,0.3689 0.6181,2.016 2.1934,3.6602 l 0,-0.01 c 3.1143,3.2506 2.1019,4.2335 -1.0704,1.0391 -2.7600997,-2.7792 -4.4393997,-4.8718 -4.4393997,-5.5352 0,-0.3143 4.1624997,-0.5561 9.2499997,-0.5371 13.1538,0.049 21.6866003,-0.5925 33.9999973,-2.5547 0.9006,-0.1436 1.6534,-0.2089 2.2422,-0.1972 z m 111.509699,2.5039 0,0 c 1.6762,0.072 3.7842,0.7739 5.7481,2.0489 2.6137,1.6966 2.8683,3.4723 0.75,5.2304 -1.0364,0.8601 -1.5,0.8967 -1.5,0.1211 0,-2.0092 -8.4869,-1.3474 -10.4434,0.8145 -0.9641,1.0653 -1.4602,2.4092 -1.1035,2.9863 0.4141,0.6702 -0.4544,0.9221 -2.4023,0.6953 -2.1423,-0.2494 -3.0508,0.07 -3.0508,1.0723 0,0.7858 -0.45,1.1504 -1,0.8105 -0.55,-0.3399 -1,0.1306 -1,1.0469 0,1.0184 -0.5453,1.4578 -1.4024,1.1289 -2.2097,-0.848 -2.7583,0.4904 -0.998,2.4356 0.8827,0.9753 1.4314,2.294 1.2188,2.9316 -0.2129,0.6376 -1.2702,-0.067 -2.3516,-1.5664 -1.0814,-1.499 -4.1043,-4.8012 -6.7168,-7.3379 -5.5329,-5.3721 -6.1259,-7.1481 -1.4688,-4.4004 1.8046,1.0648 5.1019,2.2263 7.3262,2.5821 3.8778,0.6194 4.229,0.4441 8.586,-4.3008 2.4987,-2.7215 4.8614,-4.6305 5.25,-4.2422 0.388,0.3883 1.1105,-0.018 1.6054,-0.9024 0.3894,-0.6958 1.2067,-1.0711 2.2637,-1.1464 0.2202,-0.016 0.4499,-0.018 0.6894,-0.01 z m -159.501896,0.2812 c 0.8899,0 1.3399,0.45 1,1 -0.3399,0.55 -0.7899,1 -1,1 -0.2101,0 -0.6601,-0.45 -1,-1 -0.3399,-0.55 0.1101,-1 1,-1 z m -4,3 c 0.825,0 1.5,0.3832 1.5,0.8516 0,1.3718 10.8965997,13.1484 12.1659997,13.1484 0.4584,0 0.834,0.7012 0.834,1.5586 0,0.8577 0.4426,1.2856 0.9844,0.9512 1.0891,-0.6731 7.0156,4.9279 7.0156,6.6309 0,0.5894 0.6803,0.8131 1.5117,0.4941 0.8315,-0.3191 2.969,0.3006 4.75,1.3789 3.4491003,2.0883 8.0398003,4.2263 8.5410003,3.9766 0.1665,-0.083 1.4169,0.5799 2.7793,1.4726 1.3625,0.8927 3.812797,1.716 5.445297,1.8301 1.6325,0.1141 2.9697,0.5133 2.9707,0.8867 0.001,0.3735 2.3645,1.3667 5.252,2.2071 2.8875,0.8405 7.5,2.6701 10.25,4.0664 2.75,1.3963 5.5625,2.5429 6.25,2.5429 0.6875,0 1.25,0.5283 1.25,1.17 0,0.6416 0.2821,0.8858 0.6269,0.541 0.3447,-0.3447 1.9197,0.042 3.5,0.8593 1.5802,0.8172 2.8731,1.2434 2.8731,0.9473 0,-0.296 1.8,0.5975 4,1.9863 2.2,1.3888 4,2.2778 4,1.9766 0,-0.3013 1.0125,0.015 2.25,0.7012 1.2375,0.6862 2.6586,1.1282 3.1582,0.9824 0.4996,-0.1459 1.1844,0.1811 1.5215,0.7266 0.3371,0.5455 1.7285,1.2003 3.0918,1.455 1.3633,0.2547 3.1535,0.6193 3.9785,0.8106 0.825,0.1914 1.4145,-0.132 1.3105,-0.7188 -0.1039,-0.5868 2.0336,0.033 4.75,1.377 2.7165,1.3443 4.9395,2.885 4.9395,3.4238 0,0.5389 0.6087,0.7448 1.3535,0.459 0.7449,-0.2859 2.5614,0.6002 4.0352,1.9668 1.4739,1.3666 3.225699,2.2614 3.894499,1.9902 0.9317,-0.3777 0.9243,-0.5112 -0.033,-0.5722 -0.6875,-0.043 -1.249999,-0.7532 -1.249999,-1.5782 0,-0.825 -0.3375,-1.5058 -0.75,-1.5058 -0.4125,0 -2.8856,-2.0281 -5.4961,-4.5 -2.6104,-2.4719 -5.0207,-4.4942 -5.3555,-4.4942 -0.3348,0 -2.4894,-1.2702 -4.789,-2.8222 -2.2996,-1.552 -6.8645,-4.1186 -10.1446,-5.7032 -3.2802,-1.5846 -6.1898,-3.1786 -6.4648,-3.5429 -0.275,-0.3643 -1.625,-1.0084 -3,-1.4317 -1.375,-0.4233 -2.725,-1.0779 -3,-1.455 -0.275,-0.377 -2.2805,-1.3831 -4.457,-2.2364 -2.1765,-0.8533 -4.1394,-2.0973 -4.3614,-2.7636 -0.2877,-0.8631 0.4187,-0.7977 2.4571,0.2285 2.8709,1.4452 6.4437,2.3207 13.8339,3.3906 3.5782,0.5181 3.8382,0.4145 2.627,-1.0449 -1.6446,-1.9816 -0.4432,-2.0306 2.9004,-0.1192 2.9874,1.7078 4,1.8373 4,0.5137 0,-1.0273 -11.1261,-7.0137 -13.0352,-7.0137 -0.601,0 -3.6521,-1.1864 -6.7793,-2.6367 -3.1273,-1.4502 -6.248,-2.65 -6.9355,-2.666 -0.6875,-0.016 -1.25,-0.4049 -1.25,-0.8633 0,-0.4583 0.5625,-0.8283 1.25,-0.8183 1.8956,0.023 15.9751,4.5159 18.7812,5.9941 1.3575,0.7151 3.1438,1.6636 3.9688,2.1074 0.825,0.4438 3.4143,1.8043 5.7539,3.0235 2.3395,1.2192 5.132,3.0375 6.207,4.039 1.0749,1.0015 2.22,1.8203 2.543,1.8203 0.323,0 1.7129,1.125 3.0879,2.5 2.4863,2.4862 4.4082,3.2269 4.4082,1.6993 0,-0.44 -0.5392,-1.34 -1.1992,-2 -1.526,-1.526 0.6571,-1.7125 2.4922,-0.2129 0.6643,0.5429 3.433599,2.634 6.156199,4.6464 4.5577,3.3696 5.8364,3.8736 10.7656,4.2403 0.9436,0.07 3.012,1.3644 4.5957,2.8769 5.4432,5.1988 8.1895,7.2335 8.1895,6.0704 0,-1.4321 -10.5087,-11.8204 -11.957,-11.8204 -0.5739,0 -1.8753,-0.7875 -2.8926,-1.75 -3.0395,-2.8756 -6.1308,-5.25 -6.834,-5.25 -0.3629,0 -1.37,-0.6174 -2.2383,-1.3711 -0.8683,-0.7537 -3.603099,-2.4844 -6.078099,-3.8457 -2.475,-1.3613 -7.0963,-3.9408 -10.2695,-5.7343 -4.1181,-2.3276 -6.1221,-2.9682 -7.0039,-2.2364 -0.8813,0.7314 -2.38,0.2596 -5.2305,-1.6445 -2.1974,-1.4679 -5.2326,-3.3059 -6.7442,-4.0859 -4.8561,-2.5056 -2.1084,-2.3305 3.1856,0.2031 2.8108,1.3452 5.3523,2.0561 5.6465,1.5801 0.2942,-0.4761 0.1696,-0.8747 -0.2754,-0.8867 -0.4449,-0.012 -1.9336,-0.9316 -3.3086,-2.043 l -2.5,-2.0215 4,1.6348 c 2.2,0.8985 4.6408,1.8943 5.4238,2.2148 1.0134,0.4149 1.2385,0.1016 0.7813,-1.0898 -0.7798,-2.0321 0.1568,-2.093 2.6894,-0.1758 1.6688,1.2632 2.2062,1.2103 4.5176,-0.4356 2.5635,-1.8259 2.7112,-1.8237 6.5332,0.035 4.8702,2.3689 4.8219,2.3729 4.0566,-0.3477 -0.4955,-1.7613 -0.4041,-1.9242 0.418,-0.75 0.5776,0.825 1.064,1.05 1.082,0.5 0.018,-0.55 1.019499,0.575 2.226599,2.5 1.2071,1.925 2.4391,3.725 2.7383,4 2.457,2.2577 6.0039,8.2373 5.4336,9.1602 -0.4505,0.7289 -0.2671,0.8737 0.5019,0.3984 1.1253,-0.6955 3.5062,1.4197 9.6387,8.5625 5.3148,6.1903 9.459,11.6715 9.459,12.5098 0,0.5086 0.7875,1.6554 1.75,2.5488 3.0442,2.8255 6.25,6.5752 6.25,7.3106 0,0.39 1.5965,2.3074 3.5488,4.2597 2.096,2.096 3.3216,4.1467 2.9903,5.0098 -0.3901,1.0167 -0.085,1.2805 1.0019,0.8633 0.8598,-0.3299 1.3219,-0.2109 1.0274,0.2656 -0.2948,0.4766 1.2955,2.9461 3.5332,5.4883 2.2377,2.5422 3.6794,4.623 3.205,4.623 -1.1596,0 -5.5493,-3.0709 -6.8613,-4.7988 -0.5802,-0.7642 -2.2681,-1.4589 -3.75,-1.5449 -2.5551,-0.1482 -3.1894,-0.8816 -2.7305,-3.1563 0.111,-0.55 -0.137,-0.6617 -0.5507,-0.248 -0.4137,0.4137 -1.5794,0 -2.5899,-0.9102 -1.0105,-0.9144 -2.1073,-1.3926 -2.4394,-1.0605 -0.332,0.332 -2.4263,-0.546 -4.6524,-1.9512 -3.8421,-2.4255 -5.1527,-3.5223 -12.2324,-10.2422 -4.21,-3.996 -10.6663,-8.1042 -11.7168,-7.4551 -0.4854,0.3007 0.1126,1.4088 1.3281,2.4629 1.2155,1.0542 1.8749,2.25 1.4668,2.6582 -0.4082,0.4081 -1.3163,-0.044 -2.0195,-1.0058 -0.7032,-0.9616 -1.755,-1.7481 -2.336,-1.7481 -0.581,0 -1.2052,-0.3641 -1.3886,-0.8086 -0.4971,-1.2053 -9.902299,-7.4571 -10.427799,-6.9316 -1.0713,1.0712 1.1038,3.5366 6.8985,7.8184 3.407599,2.518 6.087899,5.0882 5.956999,5.7129 -0.1309,0.6246 0.3365,0.916 1.0391,0.6464 0.7026,-0.2696 3.285,1.2072 5.7383,3.2813 2.4533,2.0741 5.0667,4.2226 5.8066,4.7754 0.7399,0.5528 2.4472,2.0183 3.7949,3.2558 1.3476,1.2375 2.6289,2.25 2.8477,2.25 0.2189,0 2.7387,2.475 5.5996,5.5 5.3399,5.6461 7.3083,6.8274 6.2461,3.75 -0.3323,-0.9625 3.6455,2.6375 8.8398,8 5.1942,5.3625 9.9637,9.75 10.5996,9.75 0.6359,0 1.6745,0.9694 2.3086,2.1543 1.1461,2.1415 1.13,2.1395 -2.7148,-0.166 -2.1273,-1.2754 -4.5422,-2.8267 -5.3672,-3.4472 -0.825,-0.6206 -2.85,-1.7751 -4.5,-2.5665 -2.6641,-1.2779 -9.9199,-6.2001 -13.1992,-8.9531 -0.6595,-0.5537 -2.8804,-1.7964 -4.9356,-2.7637 -2.0553,-0.9662 -4.7202,-2.6578 -5.9218,-3.7578 -4.8002,-4.3937 -7.2067,-6.0796 -8.2071,-5.7461 -0.577,0.1923 -1.6538,-0.4901 -2.3926,-1.5175 -0.7388,-1.0275 -2.0187,-2.1848 -2.8437,-2.5703 -0.825,-0.3855 -3.975,-2.2665 -7,-4.1817 -4.601599,-2.9135 -5.558399,-3.214 -5.853499,-1.832 -0.194,0.9084 0.3685,2.0555 1.25,2.5488 0.8815,0.4934 1.6035,1.536 1.6035,2.3164 0,0.8236 0.6037,1.1879 1.4394,0.8672 0.816399,-0.3133 2.002099,0.3493 2.740299,1.5313 0.7157,1.146 1.6971,2.0839 2.1797,2.0839 0.4826,0 2.35,1.2375 4.1504,2.75 5.6324,4.7316 7.8799,6.3465 11.4902,8.2539 1.925,1.017 4.994,3.2348 6.8203,4.9297 4.9947,4.6355 12.3215,10.0664 13.582,10.0664 0.6136,0 1.6784,0.9 2.3653,2 0.687,1.1 1.9962,2 2.9082,2 0.9119,0 1.3598,0.2964 0.9961,0.6602 -0.3638,0.3637 0.8945,1.7191 2.7968,3.0117 1.9024,1.2927 3.3254,2.9088 3.1602,3.5899 -0.1651,0.6811 -0.1116,0.9007 0.1191,0.4882 0.7231,-1.2929 3.0117,-0.8178 3.6133,0.75 0.3166,0.825 1.11,1.5 1.7637,1.5 1.5028,0 13.9452,12.7546 15.6484,16.0411 0.7008,1.3524 1.36,4.4839 1.4629,6.9589 0.2378,5.7182 -1.117,15.807 -2.2129,16.4844 -0.46,0.2842 -1.1453,2.7668 -1.5234,5.5156 -0.3781,2.7488 -1.0764,5.2381 -1.5508,5.5313 -0.4745,0.2932 -0.6379,1.1135 -0.3652,1.8242 0.2727,0.7106 -0.7099,2.4971 -2.1817,3.9688 -2.614,2.6141 -3.6349,3.0731 -6.123,2.7558 -0.6719,-0.086 -1.5043,0.9698 -1.8496,2.3457 -0.3453,1.3758 -1.3841,2.7424 -2.3067,3.0352 -0.9225,0.2928 -5.2652,3.8779 -9.6504,7.9687 -4.3853,4.0909 -9.5476,8.2553 -11.4726,9.2539 -1.925,0.9985 -4.9786,3.0539 -6.7852,4.5664 -1.8066,1.5125 -3.9059,2.75 -4.666,2.75 -0.76,0 -1.5314,0.3375 -1.7148,0.75 -0.1833,0.4125 -3.259,3.2587 -6.834,6.3243 -8.5349,7.3187 -11.2435,8.3319 -9.3945,3.5136 0.3326,-0.8667 1.0841,-1.28 1.6699,-0.9179 0.6814,0.4211 0.8186,0.018 0.3828,-1.1172 -0.5135,-1.3382 -0.2956,-1.628 0.8828,-1.1758 0.8662,0.3324 1.3006,0.176 0.9746,-0.3516 -0.3237,-0.5236 0.2812,-1.8221 1.3438,-2.8847 2.7364,-2.7364 18.5392,-13.1407 19.959,-13.1407 0.6498,0 1.1816,-0.45 1.1816,-1 0,-0.55 0.5199,-1 1.1543,-1 1.4939,0 11.4433,-9.3141 15.4746,-14.4863 1.7207,-2.2076 3.8827,-6.3424 4.8047,-9.1875 0.922,-2.8452 2.3225,-5.7087 3.1113,-6.3633 0.7888,-0.6547 1.2164,-1.5416 0.9512,-1.9707 -0.2652,-0.4291 0.1904,-2.684 1.0117,-5.0117 0.8213,-2.3278 1.4922,-5.4884 1.4922,-7.0234 0,-1.535 0.4301,-2.9416 0.9551,-3.125 0.6019,-0.2103 0.5862,-1.9628 -0.043,-4.75 -0.5481,-2.4296 -0.759,-5.0414 -0.4668,-5.8028 0.2921,-0.7614 0.087,-1.1094 -0.457,-0.7734 -0.5437,0.336 -0.9883,0.1724 -0.9883,-0.3633 0,-0.9223 -2.3582,-4.0337 -6.25,-8.248 -0.9625,-1.0422 -1.75,-2.2927 -1.75,-2.7774 0,-0.4847 -1.5367,-2.0521 -3.4141,-3.4844 -1.8774,-1.4311 -4.036,-3.2256 -4.7968,-3.9863 -0.7607,-0.7608 -2.3798,-1.7007 -3.5997,-2.0879 -1.2198,-0.3871 -1.9599,-1.1204 -1.6445,-1.6308 0.3154,-0.5104 -0.4225,-0.9278 -1.6406,-0.9278 -1.218,0 -3.6915,-1.125 -5.4942,-2.5 -1.8027,-1.375 -3.6445,-2.5039 -4.0937,-2.5039 -0.9615,0 -12.1403,-7.3133 -14.3164,-9.3633 -0.825,-0.7763 -3.3,-2.4047 -5.5,-3.6171 -2.2,-1.2124 -5.2375,-3.3709 -6.75,-4.7969 -1.512499,-1.4259 -2.749999,-2.3219 -2.749999,-1.9902 0,0.3318 -2.9424,-2.1378 -6.5391,-5.4883 -4.0955,-3.8151 -6.3333,-6.6284 -5.9883,-7.5274 0.3545,-0.9238 0.064,-1.2497 -0.8105,-0.914 -0.864,0.3316 -1.8471,-0.7219 -2.6973,-2.8887 -0.736,-1.8758 -1.705,-3.4102 -2.1523,-3.4102 -0.4474,0 -0.8125,-0.5787 -0.8125,-1.2851 0,-0.7064 -1.35,-2.082 -3,-3.0567 -1.65,-0.9747 -3,-2.1959 -3,-2.7148 0,-0.5189 -0.675,-0.9434 -1.5,-0.9434 -0.825,0 -1.5,-0.45 -1.5,-1 0,-0.55 -0.4974,-1 -1.1055,-1 -1.0217,0 -4.9255,-2.7605 -9.1445,-6.4648 -0.9625,-0.8451 -2.2062,-1.5352 -2.7637,-1.5352 -1.6089,0 -5.3409,-2.3389 -6.7812,-4.25 -0.7254,-0.9625 -2.3771,-1.75 -3.6719,-1.75 -1.2948,0 -5.6569,-1.5145 -9.6934,-3.3652 -8.9728,-4.1138 -11.0525,-4.9822 -12.3398,-5.1543 -0.55,-0.074 -2.799997,-0.9487 -4.999997,-1.9453 -2.2,-0.9966 -4.9,-2.1535 -6,-2.5703 -1.1,-0.4168 -6.2750003,-2.7927 -11.5000003,-5.2793 -7.4226,-3.5325 -10.156,-5.4218 -12.4999997,-8.6367 -1.65,-2.2631 -4.0261,-5.3374 -5.2793,-6.8321 -1.984,-2.3665 -5.2207,-7.8667 -5.2207,-8.8711 0,-0.1905 0.675,-0.3457 1.5,-0.3457 z m 117.046897,8.2305 c 0.5567,-0.051 2.0778,0.6126 3.662099,1.627 3.7936,2.4292 2.6708,2.8091 -1.546899,0.5234 -1.5611,-0.846 -2.5936,-1.7834 -2.293,-2.084 0.038,-0.038 0.098,-0.059 0.1778,-0.066 z m 10.240199,5.8477 c 0.4577,-0.095 1.4121,0.3604 2.7715,1.3886 1.0676,0.8075 2.7488,1.483 3.7363,1.5 0.9875,0.018 2.9219,1.1582 4.2969,2.5332 1.375,1.375 3.1141,2.5 3.8652,2.5 0.7511,0 2.5292,1.384 3.9531,3.0762 2.1059,2.5028 2.5899,2.7258 2.5899,1.1992 0,-1.0322 -0.5392,-2.4161 -1.1992,-3.0761 -0.66,-0.66 -0.7725,-1.1936 -0.25,-1.1836 2.1891,0.035 3.5558,1.8801 4.123,5.5644 0.3318,2.1555 1.0133,4.4415 1.5137,5.0801 0.5529,0.706 0.525,1.3994 -0.07,1.7676 -0.5387,0.3329 -1.262,0.1469 -1.6074,-0.4121 -0.3455,-0.559 -0.2634,-1.0196 0.1816,-1.0196 0.4449,0 -0.7187,-0.9339 -2.5859,-2.0722 -4.6829,-2.8549 -6.3616,-4.7018 -5.5157,-6.0703 0.4693,-0.7594 0.2807,-0.8904 -0.5468,-0.379 -0.6965,0.4299 -1.5548,0.3858 -1.9063,-0.098 -1.0657,-1.4642 -7.1367,-4.3489 -7.1367,-3.3906 0,0.492 0.4686,1.1853 1.041,1.539 0.5723,0.3538 0.7766,1.4715 0.4551,2.4844 -0.3357,1.0578 0.012,2.1926 0.8144,2.666 0.7688,0.4533 1.9636,1.9492 2.6563,3.3242 0.6928,1.375 -2.166,-0.9553 -6.3535,-5.1777 -4.1875,-4.2224 -7.6133,-8.2491 -7.6133,-8.9492 0,-0.9901 0.2659,-1.0077 1.1992,-0.074 1.888,1.8874 2.9796,1.4037 1.8008,-0.7989 -0.6313,-1.1795 -0.6706,-1.8267 -0.2129,-1.9218 z m -77.388699,38.6562 c 1.8807,-0.032 3.0056,0.4752 3.7071,1.5156 0.3325,0.4932 3.2371,1.1256 6.455,1.4043 3.2178,0.2786 7.22,1.2376 8.8946,2.1328 1.6746,0.8952 3.2699,1.6745 3.5449,1.7305 2.7824,0.5714 8.0378,3.8241 10.2578,6.3477 1.5168,1.7241 3.2336,3.1347 3.8164,3.1347 0.5829,0 0.7947,0.8402 0.4688,1.8672 -0.741,2.3348 4.8908,8.8571 6.041,6.9961 0.4275,-0.6918 -0.2262,-1.9656 -1.5664,-3.0508 -1.2654,-1.0246 -2.066,-2.098 -1.7793,-2.3847 0.2867,-0.2868 2.2619,1.1255 4.3906,3.1386 2.1288,2.013 4.7909,4.0131 5.9141,4.4434 1.1231,0.4303 3.2468,2.5216 4.7207,4.6484 2.6137,3.7716 2.6455,3.9968 1.2988,9.1016 -0.8309,3.1499 -1.0071,5.4641 -0.4434,5.8125 1.0501,0.649 4.7967,-3.4183 4.8477,-5.2637 0.06,-2.1408 2.1196,-2.5419 4.0566,-0.789 1.8552,1.679 1.8404,1.7931 -0.6816,5.0996 -2.3487,3.0794 -2.4106,3.3808 -0.6836,3.3808 1.0429,0 2.9256,-0.7204 4.1836,-1.6015 2.555599,-1.79 4.060399,-1.1908 2.308599,0.9199 -0.890999,1.0736 -0.599699,1.6102 1.3574,2.502 1.7788,0.8097 2.492,1.9301 2.502,3.9082 0.01,2.101 0.8446,3.2552 3.4589,4.7714 3.4251,1.9864 3.4354,2.0146 1.6426,4.3711 -1.7918,2.3551 -1.8199,2.3583 -3.709,0.4102 -2.1996,-2.2681 -4.4988,-3.2642 -9.402299,-4.0723 -7.095,-1.1692 -20.0042,0.3528 -21.7383,2.5625 -1.087,1.3851 -6.4498,3.8467 -9.9824,4.5821 -0.6716,0.1398 -1.5354,0.5685 -1.918,0.9511 -1.7181,1.7181 -3.3834,0.6333 -2.7715,-1.8047 0.506,-2.0164 0.2556,-2.5 -1.2929,-2.5 -1.0559,0 -2.8857,0.9 -4.0664,2 -1.1807,1.1 -3.0359,2 -4.1231,2 -1.0872,0 -3.1662,0.4515 -4.6191,1.0039 -1.4529,0.5524 -5.8691,1.1975 -9.8145,1.4336 -3.9453,0.2362 -7.5113,0.4601 -7.9238,0.4961 -0.4125,0.036 -0.75,0.9664 -0.75,2.0664 0,2.3887 -0.6017,2.4571 -4.3652,0.4942 -1.575397,-0.8216 -3.600397,-1.4998 -4.499997,-1.5098 -1.3028,-0.012 -1.3572,-0.1903 -0.2735,-0.8769 0.7484,-0.4742 2.2109,-0.6409 3.25,-0.3692 1.350897,0.3533 1.894297,-0.038 1.906297,-1.373 0.01,-1.0266 1.2598,-4.3403 2.7793,-7.3653 2.2156,-4.4108 3.3058,-5.5628 5.5058,-5.8183 2.6687,-0.31 2.7255,-0.2129 2.1133,3.6152 -1.2043,7.5317 2.6653,10.4826 10.0508,7.6621 3.4689,-1.3248 4.5618,-2.3121 5.0586,-4.5742 0.7354,-3.3481 1.2495,-3.5351 3.1152,-1.1348 1.2907,1.6605 1.4339,1.6544 2.8086,-0.1211 1.0109,-1.3052 2.1753,-1.6903 3.8516,-1.2695 2.8746,0.7214 4.0881,-0.1866 2.6172,-1.959 -0.813,-0.9796 -0.1021,-1.7493 3.0078,-3.2519 3.24,-1.5654 4.0742,-1.6794 4.0742,-0.5586 0,1.9359 1.9126,1.7605 5.6523,-0.5195 3.9237,-2.3933 10.3477,-4.2492 10.3477,-2.9903 0,0.5057 -0.6948,0.9199 -1.543,0.9199 -0.8482,0 -2.0857,0.4644 -2.75,1.0332 -0.6643,0.5688 -2.106,1.6568 -3.2051,2.418 -3.569,2.472 -0.711,2.8682 5.2149,0.7227 7.1363,-2.5838 11.0841,-2.9434 14.1191,-1.2871 3.5406,1.9323 4.0578,0.2483 0.7383,-2.4043 -1.6413,-1.3117 -4.1869,-2.3039 -5.7969,-2.2579 -1.5786,0.045 -3.389,-0.4378 -4.0234,-1.0722 -0.6344,-0.6344 -2.1881,-1.1524 -3.4531,-1.1524 -2.7216,0 -2.7163,0.025 -0.8067,-3.6367 1.7223,-3.3022 1.9569,-6.9672 0.5039,-7.8652 -0.551,-0.3405 -1.4585,0.4208 -2.0156,1.6914 -1.7272,3.9391 -4.5181,8.1545 -5.6484,8.5312 -1.7339,0.578 -2.3399,-3.7795 -0.8477,-6.0976 1.8093,-2.8105 0.8882,-6.977 -2.2344,-10.0996 -1.3885,-1.3885 -2.2057,-2.5235 -1.8164,-2.5235 0.3893,0 0.103,-0.6041 -0.6347,-1.3418 -0.7377,-0.7377 -2.8277,-1.3835 -4.6465,-1.4355 -1.8188,-0.052 -4.3738,-0.7921 -5.6777,-1.6465 -1.304,-0.8544 -3.067,-1.2867 -3.9161,-0.9609 -0.9098,0.3491 -1.7956,-0.067 -2.1582,-1.0117 -0.8634,-2.25 -2.5152,-2.0251 -9.9707,1.3554 -5.3564,2.4287 -6.6267,2.6967 -7.0859,1.5 -0.4359,-1.1361 -0.9821,-0.9195 -2.4766,0.9805 -1.8225,2.317 -7.1257,5.5605 -9.0918,5.5605 -1.2887,0 9.4792,-9.9159 10.8184,-9.9629 1.8746,-0.065 7.4043,-3.1356 7.4043,-4.1113 0,-0.5098 -0.7562,-0.9258 -1.6797,-0.9258 -2.3413,0 -8.3203,2.2486 -8.3203,3.1289 0,0.3997 -2.5875,2.3082 -5.75,4.2422 -3.1625,1.934 -7.240997,4.8915 -9.062497,6.5723 -3.5254,3.2533 -4.1875,3.5936 -4.1875,2.1465 0,-1.3101 15.076697,-13.1607 16.009797,-12.584 0.4295,0.2654 1.021,-0.1436 1.3144,-0.9082 0.2934,-0.7646 2.9268,-2.1773 5.8535,-3.1406 2.9268,-0.9633 5.5726,-2.1347 5.8789,-2.6016 1.1269,-1.7183 7.413,-1.5071 9.8282,0.3301 2.7972,2.1278 4.1152,2.3055 4.1152,0.5547 0,-1.7074 -3.0094,-3.4648 -7.3203,-4.2735 -3.5732,-0.6703 -17.0375,2.6862 -18.1778,4.5313 -0.2847,0.4605 -3.3267,2.728 -6.7597,5.039 -3.432997,2.311 -7.817197,5.6836 -9.742197,7.4961 -4.0985,3.8589 -14.27620029,9.8942 -18.3203003,10.8633 -3.741,0.8964 -2.8453,3.1438 1.1777,2.9551 3.5464,-0.1664 3.7769,0.1567 1.64260001,2.291 -0.82500001,0.825 -1.50000001,1.9169 -1.50000001,2.4278 0,1.9679 3.2991,0.7939 5.8125,-2.0704 1.4479,-1.65 3.4743,-3 4.5019,-3 1.0276,0 3.7082003,-1.575 5.9571003,-3.5 2.2489,-1.925 4.6822,-3.5 5.4082,-3.5 0.726,0 1.3203,-0.45 1.3203,-1 0,-0.55 0.4821,-1 1.0703,-1 0.588297,0 0.925797,1.0125 0.749997,2.25 -0.1757,1.2375 -0.770297,2.2035 -1.320297,2.1465 -0.55,-0.057 -1.771,1.1641 -2.7129,2.7129 -1.7558,2.8873 -2.1794,3.3839 -9.6309003,11.3027 -4.2901,4.559 -4.3902,4.6017 -8.29289999,3.5508 -2.72240001,-0.733 -4.24110001,-1.8256 -4.88280001,-3.5136 -1.6206,-4.2626 -3.1867,-2.8825 -2.6934,2.373 0.4791,5.1037 2.1426,9.1777 3.748,9.1777 0.5306,0 0.9649,0.45 0.9649,1 0,1.6475 -1.7954,1.1353 -3.8848,-1.1074 -1.0793,-1.1584 -2.3898,-1.8423 -2.9121,-1.5195 -0.5348,0.3305 -1.2438997,-2.0246 -1.6249997,-5.3926 -1.11,-9.8117 -2.6436,-7.0239 -2.3476,4.2695 0.256,9.767 0.1695,10.2637 -1.8418,10.5508 -1.7364,0.2479 -2.2165,-0.3497 -2.7071,-3.373 -0.6788,-4.1828 -3.1771,-7.4278 -5.7187,-7.4278 -0.9495,0 -3.1301,-1.4367 -4.8457,-3.1914 -3.0283,-3.0974 -3.1612,-3.1338 -4.586,-1.25 -0.8072,1.0672 -1.4825,1.4267 -1.5,0.7989 -0.017,-0.6278 -1.7716,-1.8378 -3.9004,-2.6895 -2.1282,-0.8516 -4.1604,-2.3023 -4.5136,-3.2226 -0.4137,-1.0779 -1.3482,-1.4873 -2.6289,-1.1524 -1.0933,0.2859 -1.9883,0.1118 -1.9883,-0.3867 0,-0.4985 0.45,-0.9623 1,-1.0313 0.55,-0.069 1.5625,-0.21 2.25,-0.3125 0.6875,-0.1024 1.7822,0.2094 2.4316,0.6914 0.6493,0.4819 2.5618,0.9149 4.25,0.9629 1.6881,0.048 3.0695,0.3568 3.0703,0.6856 7e-4,0.3288 3.2632,0.5577 7.25,0.5097 3.9867,-0.048 7.7917,0.3279 8.4551,0.836 0.6634,0.5082 1.7046,0.6153 2.3145,0.2383 1.4619,-0.9035 -1.9237,-4.7376 -3.6114,-4.0899 -1.021,0.3918 -5.2819,-0.036 -17.6347,-1.7695 -0.9483,-0.1331 -2.0733,-0.5927 -2.5,-1.0195 -0.6866,-0.6868 3.4988,-0.4743 18.4746,0.9355 2.3375,0.22 4.25,-0.022 4.25,-0.5371 0,-1.3615 -3.6257,-3.0881 -5.209,-2.4805 -0.7445,0.2857 -4.7145,-0.3156 -8.8223,-1.3379 -4.1079,-1.0223 -9.2198,-1.6522 -11.3593,-1.3984 -3.8413,0.4557 -3.8808,0.4257 -3.1778,-2.375 0.3915,-1.5599 2.0315,-4.0972 3.6446,-5.6387 2.7645,-2.642 3.3128,-2.7713 9.5527,-2.2578 3.641,0.2996 7.3521,0.9291 8.2461,1.3985 1.517,0.7966 7.7171,0.6793 11.125,-0.211 0.825,-0.2156 2.85,-0.7251 4.4999997,-1.1308 4.9762,-1.2236 8.90350001,-2.8226 10.7129,-4.3614 0.942,-0.8011 2.3134,-1.2248 3.0469,-0.9433 0.7335,0.2814 3.2408,-0.7892 5.5722003,-2.3789 2.3315,-1.5898 4.4562,-2.8907 4.7227,-2.8907 0.2664,0 2.2672,-1.125 4.4453,-2.5 2.1782,-1.375 4.644797,-2.5 5.480497,-2.5 1.8777,0 11.486,-5.2193 11.5058,-6.25 0.025,-1.3204 -2.982,-0.8071 -6.789,1.1602 -2.034,1.0511 -6.1723,2.9636 -9.197297,4.25 -3.025,1.2865 -5.6535,2.688 -5.8418,3.1152 -0.5042,1.1443 -7.8227003,4.7246 -9.6582003,4.7246 -0.8688,0 -3.4623,0.9607 -5.76369999,2.1348 -7.68470001,3.9205 -16.69039971,5.9975 -22.98829971,5.3027 -7.8191,-0.8627 -8.0376,-2.093 -0.4863,-2.7421 14.0379997,-1.2074 24.32789971,-4.3444 29.2382997,-8.9141 2.0332,-1.8921 3.9668,-2.7454 6.0000003,-2.6504 3.1991,0.1499 8.9073,-2.3915 7.8184,-3.4805 -0.3587,-0.3583 0.099,-0.6504 1.0156,-0.6504 0.9167,0 1.666,-0.45 1.666,-1 0,-0.55 0.618997,-1 1.376897,-1 2.8144,0 8.8926,-3.1309 7.9356,-4.0879 -1.1057,-1.1057 -9.952397,2.237 -15.294897,5.7793 -1.9152,1.2698 -4.3506,2.3086 -5.4121,2.3086 -1.0615003,0 -3.7844003,1.0859 -6.0508003,2.4141 -4.40689999,2.5826 -15.6488997,6.8258 -16.3163997,6.1582 -0.2212,-0.2212 -2.0067,0.2681 -3.9688,1.0879 -1.9621,0.8198 -6.4249,1.5073 -9.9179,1.5273 -5.9367,0.034 -6.884,0.4849 -6.4649,3.0782 0.068,0.4215 -1.2278,0.663 -2.8809,0.5371 -1.6527,-0.126 -3.0058,-0.5165 -3.0058,-0.8672 0,-0.6907 9.4596,-5.4092 17.5,-8.7305 5.0548,-2.088 8.7203,-2.9626 15.9999997,-3.8144 2.2,-0.2574 7.3174,-2.0649 11.3711,-4.0176 4.0538003,-1.9527 10.9302003,-4.6176 15.2812003,-5.9199 3.728297,-1.116 6.365297,-1.6867 8.246097,-1.7188 z m 49.543,9.2656 c -0.5825,0 -0.7813,0.45 -0.4414,1 0.3399,0.55 0.8161,1 1.0586,1 0.2426,0 0.4414,-0.45 0.4414,-1 0,-0.55 -0.4762,-1 -1.0586,-1 z m 11.6367,9.295 c -0.1227,0.035 -0.305,0.2628 -0.5566,0.6699 -0.4897,0.7918 -0.6677,1.7975 -0.3965,2.2363 0.7544,1.2206 0.9344,0.9882 1.1172,-1.4394 0.079,-1.0545 0.041,-1.5261 -0.1641,-1.4668 z m -148.578097,11.705 c 0.55,0 1,0.4238 1,0.9414 0,0.5175 -0.45,1.2187 -1,1.5586 -0.55,0.3399 -1,-0.084 -1,-0.9414 0,-0.8574 0.45,-1.5586 1,-1.5586 z m 214.611296,4.3828 c 0.1195,0 0.2512,0.032 0.3887,0.1172 0.55,0.3399 1,1.0411 1,1.5586 0,0.5176 -0.45,0.9414 -1,0.9414 -0.55,0 -1,-0.7012 -1,-1.5586 0,-0.6435 0.2527,-1.0427 0.6113,-1.0586 z m -106.369099,1.3106 c 0.6525,-0.034 1.1164,0.076 1.2949,0.3652 0.3196,0.5172 1.5665,0.9557 2.7715,0.9727 2.5297,0.037 5.6914,2.1631 5.6914,3.8281 0,0.6269 -0.9,1.1406 -2,1.1406 -1.1111,0 -2,0.6667 -2,1.5 0,0.825 0.4761,1.5 1.0586,1.5 0.5824,0 0.8103,0.4019 0.5058,0.8946 -0.306,0.4951 -2.0946,0.5484 -3.998,0.1191 -4.736,-1.0681 -5.4803,1.2267 -1.6426,5.0645 2.2155,2.2154 2.5187,2.9136 1.25,2.8906 -2.9585,-0.054 -5.1738,-2.002 -5.1738,-4.5508 0,-1.3649 -0.5625,-2.6244 -1.25,-2.7988 -0.6875,-0.1743 -2.7125,-0.7953 -4.5,-1.3809 -1.7875,-0.5856 -3.25,-0.741 -3.25,-0.3437 0,0.7794 -10.1623,4.2752 -10.7422,3.6953 -0.6576,-0.6577 8.0406,-6.5247 8.8926,-5.9981 0.4671,0.2887 0.8496,-0.2501 0.8496,-1.1992 0,-0.9492 0.2863,-1.4402 0.6367,-1.0898 0.3505,0.3504 1.813,-0.1801 3.25,-1.1797 2.7422,-1.9074 6.398,-3.3266 8.3555,-3.4297 z m -100.501997,10.3066 c 0.6927,0 1.2598,0.45 1.2598,1 0,0.55 -0.6411,1 -1.4258,1 -0.7846,0 -1.5721,0.7156 -1.75,1.5899 -0.1778,0.8742 -0.6355,1.2742 -1.0156,0.8906 -0.9419,-0.9506 1.368,-4.4805 2.9316,-4.4805 z m 91.027397,2.8379 c 0.3859,0 0.7704,0.021 1.1484,0.051 2.018,0.1577 0.6903,1.2012 -2.0781,1.6328 -1.2861,0.2005 -3.2379,0.5795 -4.3379,0.8438 -1.1,0.2643 -2.5295,0.5166 -3.1777,0.5586 -0.6482,0.042 -1.7855,0.6386 -2.5254,1.3261 -1.7541,1.6299 -3.0633,1.8225 -4.8457,0.7129 -1.0978,-0.6834 -0.6546,-1.0638 1.8203,-1.5625 1.7989,-0.3625 3.5167,-1.0588 3.8183,-1.5468 0.3015,-0.4879 0.9874,-0.6165 1.5235,-0.2852 0.5361,0.3313 1.5163,0.1591 2.1797,-0.3848 1.0087,-0.8271 3.7733,-1.3791 6.4746,-1.3457 z m 88.790999,1.1621 c -0.2425,0 -0.7187,0.45 -1.0586,1 -0.3399,0.55 -0.1411,1 0.4414,1 0.5824,0 1.0586,-0.45 1.0586,-1 0,-0.55 -0.1988,-1 -0.4414,-1 z m 31,3 c 0.2426,0 0.4414,0.45 0.4414,1 0,0.55 -0.4762,1 -1.0586,1 -0.5825,0 -0.7813,-0.45 -0.4414,-1 0.3399,-0.55 0.8161,-1 1.0586,-1 z m -170.7655963,9.0586 c 0.8315,0 2.1719,2.0964 2.1914,3.6914 0.023,1.8479 -0.7674,1.522 -2.0293,-0.8359 -0.6139,-1.1472 -0.832,-2.3712 -0.4825,-2.7207 0.093,-0.093 0.2016,-0.1351 0.3204,-0.1348 z m -35.8984997,0.627 c 1.4355,0.035 2.7062,0.2799 3.3731,0.7676 1.6159,1.1816 1.6077,1.3842 -0.1426,3.4023 -3.1703,3.6554 -12.0382,1.9901 -12.1094,-2.2734 -0.01,-0.5041 0.2807,-0.6197 0.6426,-0.2578 0.3619,0.3619 1.1494,0.2735 1.75,-0.1954 1.2482,-0.9745 4.0939,-1.5016 6.4863,-1.4433 z m 134.882797,0.4902 c 0.7654,-0.01 1.8384,0.064 3.2227,0.207 3.025,0.3129 6.2813,0.6063 7.236299,0.6543 0.9549,0.048 3.0878,1.4414 4.7403,3.0938 2.8756,2.8757 2.9411,3.126 1.5175,5.8789 -1.1054,2.1377 -1.2309,3.5503 -0.4902,5.498 1.2268,3.2274 1.2306,3.4922 0.062,3.4922 -0.5129,0 -1.2173,-0.9 -1.5664,-2 -0.3491,-1.1 -1.0395,-2 -1.5352,-2 -0.4957,0 -0.6427,0.675 -0.3261,1.5 0.8691,2.265 -2.974899,1.8909 -5.138699,-0.5 -2.162,-2.389 -5.5,-2.6431 -5.5,-0.4179 0,0.8709 0.5344,1.4052 1.1875,1.1875 2.7028,-0.9009 6.5215,5.4545 8.851599,14.7304 0.6908,2.75 1.6385,5.4268 2.1074,5.9493 0.4689,0.5225 0.8535,2.2314 0.8535,3.7988 0,1.5673 0.6844,4.1743 1.5215,5.793 1.1373,2.1993 1.3687,4.6513 0.914,9.7011 -0.5149,5.7188 -1.097,17.3271 -1.3671,27.2676 -0.037,1.3806 -1.1254,3.6509 -2.418,5.0449 -1.2926,1.3941 -2.6531,4.1505 -3.0235,6.125 -0.880299,4.6923 -4.971199,10.6417 -10.876899,15.8223 -5.1929,4.5553 -6.3202,3.4918 -2.1816,-2.0586 3.4565,-4.6362 6.66,-11.7648 5.8652,-13.0508 -0.3977,-0.6435 -1.5624,-0.1822 -3.0391,1.2051 -1.317,1.2372 -2.3945,1.9968 -2.3945,1.6875 0,-0.3093 1.6193,-4.9997 3.5976,-10.4238 1.9784,-5.4241 4.2241,-13.0114 4.9922,-16.8614 0.7681,-3.85 1.6839,-7.675 2.0352,-8.5 0.9626,-2.2605 1.3213,-5.5217 1.808599,-16.5 0.4059,-9.1466 0.2294,-10.432 -2.056699,-15.0488 -2.9669,-5.9916 -5.6016,-8.09 -7.414,-5.9062 -0.957,1.1532 -0.9236,1.4595 0.164,1.4765 0.7548,0.012 2.5937,1.7468 4.086,3.8574 2.6593,3.761 2.7062,4.0891 2.3769,16.4727 -0.1849,6.9495 -0.7672,13.2019 -1.2949,13.8926 -0.5278,0.6908 -1.5599,3.9558 -2.293,7.2558 -0.7331,3.3 -1.8031,6.9 -2.3789,8 -1.9528,3.7308 -6.4992,22.99 -5.6347,23.8711 1.2613,1.2854 -0.976,5.6496 -4.8789,9.5117 l -3.42,3.3829 0.5879,-4.8829 c 0.3234,-2.6848 1.7445,-7.4839 3.1563,-10.6621 1.4119,-3.1782 2.5664,-6.5815 2.5664,-7.5625 0,-0.981 0.8868,-3.6197 1.9707,-5.8632 1.0839,-2.2435 2.2436,-6.0402 2.5781,-8.4375 l 0.6094,-4.3575 -2.0566,2.5 c -1.1311,1.375 -2.0681,3.2707 -2.0801,4.2129 -0.022,1.7058 -2.8321,9.5097 -5.5313,15.3614 -1.8019,3.9065 -3.8647,17.0068 -3.0234,19.1992 0.4598,1.1983 -1.4718,3.6669 -6.9141,8.834 -4.1538,3.9438 -7.5527,7.6701 -7.5527,8.2812 0,1.392 -4.6587,1.4706 -5.5098,0.094 -0.8825,-1.428 -2.5133,-0.2049 -1.8906,1.4179 0.5461,1.4229 -2.0225,2.4357 -4.7051,1.8555 -0.8827,-0.1909 -2.1952,-2.1382 -2.9179,-4.3281 -0.7228,-2.1899 -1.8019,-3.8175 -2.3965,-3.6172 -1.313,0.4425 -0.8143,5.6678 0.7187,7.5351 0.879,1.071 0.6232,1.2753 -1.2539,1 -1.5316,-0.2245 -3.0418,-1.6621 -4.3008,-4.0957 -2.083,-4.0262 -3.1908,-4.6335 -4.1054,-2.25 -0.3166,0.825 -0.1932,1.5 0.2754,1.5 0.4686,0 1.0802,0.8724 1.3593,1.9395 0.4403,1.684 0.2583,1.7846 -1.3828,0.7598 -1.0399,-0.6494 -1.8906,-2.1682 -1.8906,-3.375 0,-3.0416 -1.7391,-7.3243 -2.9746,-7.3243 -1.9338,0 -1.115,7.6151 1.125,10.4629 1.7558,2.2321 1.8954,2.8897 0.7656,3.5879 -2.3503,1.4526 -7.1471,0.2916 -9.0469,-2.1894 -2.970897,-3.8796 -4.058397,-7.8512 -2.331997,-8.5137 1.912297,-0.7338 1.886397,-2.3477 -0.037,-2.3477 -0.825,0 -1.5,-0.6488 -1.5,-1.4414 0,-3.3746 -1.9301,-2.2113 -3.377,2.0352 -1.5285,4.4857 -1.5062,4.682 0.9063,8.2324 1.3594,2.0005 2.4707,3.9076 2.4707,4.2383 0,0.3306 -0.6782,0.6016 -1.5078,0.6016 -2.3021,0 -6.3766,-5.994 -6.3008,-9.2696 0.037,-1.5944 -0.6661,-5.3428 -1.5625,-8.3301 -0.8963003,-2.9856 -1.6289003,-6.4019 -1.6289003,-7.5918 0,-1.1899 -0.8886,-2.9683 -1.9746,-3.9511 -1.0859,-0.9828 -2.2437,-2.6347 -2.5723,-3.6699 -1.0125,-3.1903 -8.8112,-10.3794 -11.4707,-10.5743 -1.3655,-0.1002 -3.3899997,-1.2163 -4.4999997,-2.4804 -1.1099,-1.2641 -3.283,-2.9566 -4.8281,-3.7598 -1.5451,-0.8032 -3.2408,-2.2657 -3.7676,-3.25 -0.5267,-0.9843 -1.3876,-1.7891 -1.9141,-1.7891 -1.3011,0 -5.9726,-4.1335 -5.9726,-5.2851 0,-0.5092 -1.35,-2.6316 -3,-4.7149 -3.0462,-3.8462 -3.9667,-8.5111 -1.8203,-9.2265 0.6931,-0.2311 0.8947,-1.1363 0.4883,-2.1953 -0.5641,-1.47 -0.9661,-1.5755 -2.1797,-0.5684 -0.8185,0.6793 -1.5387,0.8432 -1.5996,0.3633 -0.2661,-2.0971 0.3797,-5.9153 1.0781,-6.3731 0.4196,-0.275 1.0806,-1.5125 1.4668,-2.75 0.9977,-3.1971 -1.0491,-2.8394 -2.8613,0.5 -1.4439,2.6606 -1.4805,2.5596 -1.1172,-3.1386 0.2572,-4.0327 1.061,-6.8177 2.5488,-8.8301 2.4125,-3.2631 1.9147,-4.8368 -0.9609,-3.041 -2.1105,1.318 -3.043,-0.01 -3.043,-4.3223 0,-3.0836 1.0803,-3.0604 3.8125,0.082 1.1956,1.375 3.0499,2.5 4.1211,2.5 3.095,0 3.3003,1.6444 0.5722,4.5879 -1.3891,1.4992 -2.3096,2.9404 -2.0468,3.2032 0.7465,0.7466 6.9462,-2.0186 7.8515,-3.502 0.4463,-0.7317 1.2338,-1.069 1.75,-0.75 1.2146,0.7507 1.2242,8.1665 0.012,8.916 -0.5099,0.3151 -1.4747,2.2538 -2.1446,4.3086 -0.6698,2.0549 -1.5673,3.9675 -1.9941,4.2481 -1.2693,0.8343 -3.6674,14.3486 -2.7442,15.4648 0.4659,0.5634 1.7384,2.1061 2.8282,3.4277 1.0898,1.3217 1.9824,2.7007 1.9824,3.0645 0,1.2186 7.9485,4.9246 8.5332,3.9785 0.775,-1.2539 8.2476997,2.6333 11.9061997,6.1934 1.6169,1.5734 3.72840001,2.8593 4.69140001,2.8593 0.96339999,0 2.04209999,0.4722 2.39849999,1.0489 0.4423,0.7157 1.1008,0.6735 2.0723,-0.1328 1.0786,-0.8952 1.149,-1.5127 0.289,-2.5489 -0.9,-1.0844 -0.6906,-1.3672 1.0176,-1.3672 1.1846,0 2.3716,-0.565 2.6367,-1.2558 0.3211,-0.8367 2.0290003,-1.1321 5.1152003,-0.8867 l 4.6329,0.3671 -0.5508,-4.1113 c -0.3034,-2.2618 -0.1755,-4.1133 0.2851,-4.1133 1.0091,0 2.4129,3.7287 2.4473,6.5 0.014,1.1 0.5879,1.9554 1.2754,1.9004 0.6875,-0.055 2.203097,-0.168 3.367197,-0.25 1.6938,-0.12 2.021,-0.6498 1.6386,-2.6504 -0.515,-2.6956 0.9363,-3.4666 1.8829,-1 0.3166,0.825 1.3566,1.5 2.3125,1.5 1.5045,0 5.0508,2.866 5.0488,4.0801 -4e-4,0.2317 -1.1341,0.4864 -2.5195,0.5664 -3.1206,0.1802 -11.480497,2.5992 -11.480497,3.3223 0,0.2924 -1.35,0.5312 -3,0.5312 -1.65,0 -3,-0.3066 -3,-0.6816 0,-1.107 -4.7489,-0.2719 -6.4414003,1.1328 -1.8523,1.5373 -2.0221,4.1849 -0.375,5.832 2.2050003,2.205 -0.175,2.5748 -2.502,0.3887 -4.0165,-3.7733 -4.9572,-2.3826 -1.5742,2.3281 1.7774,2.475 3.6058,4.5 4.0625,4.5 0.4568,0 0.8301,0.675 0.8301,1.5 0,0.825 0.3375003,1.448 0.7500003,1.3828 0.4125,-0.065 1.65,-0.033 2.75,0.07 2,0.1887 2,0.1874 0,1.0468 -1.3807,0.5933 -1.5273,0.8817 -0.4727,0.9297 0.8403,0.039 2.3088,0.9825 3.2637,2.0977 1.4956,1.7467 2.0465,1.8555 3.9727,0.7773 1.2298,-0.6885 3.321997,-1.3547 4.648397,-1.4804 1.3264,-0.1256 2.6764,-0.6461 3,-1.1563 0.3236,-0.5102 3.9419,-1.2619 8.041,-1.6699 4.0992,-0.4079 9.1431,-1.6223 11.209,-2.6992 4.1946,-2.1863 9.8379,-7.551 9.8379,-9.3516 0,-0.645 1.2375,-2.7835 2.75,-4.7539 1.5125,-1.9705 4.0358,-5.4345 5.6074,-7.6973 3.2075,-4.6181 4.6015,-4.7507 2.2559,-0.2148 -1.4179,2.742 -1.2771,4.2187 0.4023,4.2187 0.3755,0 1.5185,-2.025 2.5391,-4.5 1.0206,-2.475 2.2131,-4.5 2.6504,-4.5 0.4372,0 0.8104,-0.5625 0.83,-1.25 0.02,-0.6875 1.0921,-3.5 2.3829,-6.25 l 2.3476,-5 -2.5039,-0.3281 c -3.0997,-0.4062 -4.6612,1.0588 -4.8125,4.5137 -0.078,1.78 -0.7355,2.7396 -2.0039,2.9258 -1.0383,0.1524 -2.7278,1.4293 -3.7539,2.8379 -1.0261,1.4086 -2.3465,2.2652 -2.9336,1.9023 -0.6282,-0.3882 -0.7752,-0.1878 -0.3574,0.4883 0.962,1.5566 -4.1253,8.0531 -6.8399,8.7344 -1.2001,0.3012 -3.4672,1.909 -5.0371,3.5722 -2.0289,2.1497 -3.5263,2.8945 -5.1816,2.5781 -1.2807,-0.2448 -2.8334,0.1623 -3.4492,0.9043 -0.6158,0.742 -1.4639,1.1372 -1.8848,0.877 -0.4209,-0.2601 -2.0574,0.159 -3.6367,0.9316 -1.5793,0.7726 -4.4461,1.5293 -6.3711,1.6817 -1.925,0.1524 -4.0386,0.6737 -4.6973,1.1582 -0.6587,0.4846 -2.5156,1.0878 -4.126897,1.3418 -3.3053,0.5209 -4.8551,-1.6316 -3.2071,-4.4551 0.8925,-1.5293 0.972,-1.5226 1,0.086 0.04,2.3073 0.9154,2.2079 3.716797,-0.4238 1.2729,-1.196 2.3145,-1.7584 2.3145,-1.25 0,0.5084 2.0301,0.9238 4.5117,0.9238 3.4181,0 4.6478,-0.4229 5.0684,-1.748 0.4405,-1.3881 0.9526,-1.5357 2.4863,-0.7149 1.1874,0.635 1.9336,0.6617 1.9336,0.07 0,-0.529 1.2375,-1.6041 2.75,-2.3907 8.9165,-4.6373 11.6754,-6.5084 13.5762,-9.207 1.1658,-1.6552 2.4765,-3.4598 2.9121,-4.0098 0.4355,-0.55 2.4363,-3.25 4.4472,-6 2.0108,-2.75 4.9787,-6.125 6.5957,-7.5 3.0831,-2.6217 7.6787,-7.2406 11.4551,-11.5136 1.2301,-1.3918 2.5173,-3.6448 2.8594,-5.0078 0.342,-1.363 1.0098,-2.4786 1.4844,-2.4786 1.3569,0 2.7238,6.3079 1.7734,8.1836 -1.1479,2.2654 -1.0808,4.8164 0.127,4.8164 0.5396,0 1.2828,-1.2375 1.6503,-2.75 0.3678,-1.5125 1.2747,-3.6377 2.0176,-4.7226 0.7429,-1.0849 1.3516,-4.1563 1.3516,-6.8262 0,-4.0556 -0.4914,-5.3469 -2.9863,-7.8418 -2.6595,-2.6595 -3.4531,-2.9216 -7.25,-2.3906 -2.345,0.328 -5.7615,0.7518 -7.5918,0.9414 -1.8304,0.1897 -3.8322,0.8496 -4.4493,1.4668 -0.6172,0.6172 -2.0565,1.123 -3.1992,1.123 -1.1426,0 -2.966,0.6121 -4.0508,1.3614 -3.2717,2.2597 -13.3826,3.4871 -27.0449,3.2812 -11.8773,-0.1789 -13.187197,-0.3879 -16.124997,-2.5683 -3.0132,-2.2364 -3.34,-2.2809 -5.6465,-0.7696 -2.3073,1.5118 -2.4777,1.4879 -2.9746,-0.4121 -0.3228,-1.2347 0.025,-2.1843 0.8965,-2.4531 0.7823,-0.2413 2.0969,-0.6505 2.9219,-0.9082 0.825,-0.2578 1.5,-1.2197 1.5,-2.1367 0,-2.631 -8.1777003,-1.0567 -13.4863003,2.5957 -4.1205,2.8349 -6.456,6.4015 -5.0879,7.7695 0.3349,0.3349 -0.7908,2.0529 -2.502,3.8184 -1.7239,1.7787 -2.9581,4.003 -2.7676,4.9882 0.2788,1.4427 1.2868,0.903 5.3438,-2.8652 5.1683,-4.8003 7.5,-5.796 7.5,-3.2012 0,0.825 -0.3421,1.5 -0.7598,1.5 -1.2009,0 -3.36879999,3.9808 -2.7304,5.0137 0.3172,0.5133 2.0937,-0.6284 3.9492,-2.5391 1.8555,-1.9107 4.05,-3.4746 4.8750003,-3.4746 0.825,0 1.7049,-0.5625 1.957,-1.25 0.3518,-0.9598 0.7493,-0.9766 1.709,-0.074 1.6312,1.5333 0.4376,8.3242 -1.4629,8.3242 -0.7542,0 -1.6043,-0.5625 -1.8906,-1.25 -0.3875,-0.9305 -0.8578003,-0.8408 -1.8379003,0.3536 -0.7242,0.8824 -2.3161,1.9229 -3.5371,2.3105 -1.2211,0.3875 -3.0827,1.802 -4.1387,3.1445 -1.05599999,1.3425 -2.419,2.4414 -3.0273,2.4414 -0.6084,0 -1.1055,0.5187 -1.1055,1.1543 0,0.6356 -1.0462,2.5481 -2.3242,4.25 -1.278,1.7019 -2.6082,3.871 -2.9571,4.8184 -0.5088,1.381 -1.5852,1.6465 -5.4276997,1.3437 -2.6355,-0.2076 -4.7986,-0.7579 -4.8066,-1.2226 -0.025,-1.3696 -1.5263,-3.3438 -2.543,-3.3438 -1.3045,0 -1.1819,3.3591 0.1719,4.7129 2.0327,2.0327 0.5438,3.4352 -1.8594,1.752 -2.0168,-1.4126 -2.1974,-2.2312 -1.8516,-8.3574 0.2109,-3.7351 0.8307,-7.6496 1.3789,-8.6993 0.5481,-1.0497 1.834,-3.6858 2.8575,-5.8574 1.0235,-2.1715 2.7613,-5.0167 3.8613,-6.3242 3.1094,-3.6961 3.6861,-6.033 1.6484,-6.6797 -4.3841,-1.3915 -5.9603,-17.1939 -2.2363,-22.4238 2.1703,-3.0479 7.4534997,-4.9651 10.4823997,-3.8027 1.9891,0.7625 2.8027,-0.3789 1.4395,-2.0215 -0.8165,-0.9837 -0.8389,-1.6945 -0.078,-2.4551 1.7618,-1.7617 3.1578,-0.049 2.3809,2.9199 -0.7879,3.0108 -0.3892,7.2363 0.6836,7.2363 0.9407,0 5.1846,-8.1623 5.1816,-9.9648 0,-1.2053 0.2923,-1.1706 1.6622,0.1992 1.2907,1.2907 1.403,1.9788 0.5019,3.0645 -1.5454,1.8621 1.6643,5.7058 4.3984,5.2675 1.0647003,-0.1707 2.3856003,0.024 2.9356003,0.4317 0.55,0.4077 2.8,1.3085 5,2.0019 2.2,0.6934 4.45,1.6103 4.999997,2.0391 0.55,0.4287 2.575,1.2293 4.5,1.7793 l 3.5,1 -4.0352,0.09 c -2.2191,0.05 -6.628797,-0.8206 -9.800697,-1.9355 -3.1719,-1.1148 -6.2338,-1.7404 -6.8028003,-1.3887 -0.5691,0.3517 -2.5204,-0.799 -4.3359,-2.5586 -2.2036,-2.1364 -3.5353,-2.8185 -4.0098,-2.0508 -0.3908,0.6325 0.01,1.9449 0.8867,2.9161 0.8788,0.9711 1.5977,2.2933 1.5977,2.9375 0,0.6442 0.6419,1.1718 1.4277,1.1718 0.7857,0 2.1458,0.716 3.0215,1.5918 1.2457,1.2457 4.0378003,1.6266 12.8223003,1.75 11.110197,0.156 11.225597,0.1344 10.915997,-2.0918 -0.2069,-1.488 0.2045,-2.25 1.2148,-2.25 0.8402,0 2.009,-0.9 2.5977,-2 0.5887,-1.1 2.0669,-2.0039 3.2851,-2.0039 1.2181,0 4.8637,-1.5985 8.1016,-3.5507 6.3381,-3.8225 11.6133,-5.4437 11.6133,-3.5704 0,0.6188 -0.6813,1.125 -1.5137,1.125 -1.7484,0 -5.657,2.0385 -6.6953,3.4922 -0.39,0.5462 0.2499,1.3477 1.4219,1.7813 1.2179,0.4505 2.3891,0.3692 2.7344,-0.1895 0.3323,-0.5376 2.0323,-1.2277 3.7773,-1.5351 1.7451,-0.3075 4.2174,-0.958 5.4941,-1.4434 1.2767,-0.4858 3.6355,-0.7369 5.2422,-0.5605 1.6066,0.1763 3.7084,-0.1007 4.6699,-0.6153 1.0432,-0.5583 1.9735,-0.5698 2.3086,-0.027 0.7776,1.2581 4.7287,0.1 4.2774,-1.2539 -0.5136,-1.5409 -5.6719,-2.4318 -11.9141,-2.0567 l -5.3027,0.3184 5.5,-2.043 c 3.025,-1.1237 7.3,-2.2409 9.5,-2.4824 2.2,-0.2415 4.45,-0.5002 5,-0.5762 0.55,-0.076 3.4075,0.1828 6.3496,0.5742 4.173,0.5562 5.2554,0.4264 4.9219,-0.5859 -0.2352,-0.7137 -1.5177,-1.4487 -2.8496,-1.6328 -1.3319,-0.184 -2.8719,-0.7876 -3.4219,-1.3418 -0.4195,-0.4226 -1e-4,-0.6378 1.2773,-0.6465 z m -127.757797,2.9512 c 0.5083,0 1.093,0.2905 1.918,0.8125 1.1378,0.72 0.4617,1.7815 -3.25,5.1035 -2.5777,2.307 -4.6875,4.8167 -4.6875,5.5762 0,1.4599 -1.2162,1.8307 -2.334,0.7129 -1.0978,-1.0978 -0.7526,-3.5036 0.4004,-2.791 0.5877,0.3632 1.3147,-0.2848 1.6172,-1.4415 0.3021,-1.1553 0.8495,-2.0996 1.2168,-2.0996 0.3673,0 1.4667,-1.35 2.4414,-3 1.1944,-2.0218 1.8307,-2.8649 2.6777,-2.873 z m -30.433601,4.3086 c 0.3714,0.1227 0.1027,1.2632 -0.9843,3.3652 -0.8498,1.6434 -1.8421,4.8454 -2.2051,7.1153 -0.7675,4.7995 -1.9228,5.9999 -2.7461,2.8515 -0.8221,-3.1436 0.2289,-6.7536 3.082,-10.584 1.4712,-1.975 2.482,-2.8707 2.8535,-2.748 z m 168.326198,0.1348 c -1.9223,-0.024 -5.1739,1.6879 -5.666,3.1796 -0.2585,0.7838 0.55,1.25 2.1699,1.25 1.4208,0 2.584,-0.436 2.584,-0.9687 0,-0.5328 0.675,-0.7092 1.499999,-0.3926 0.9225,0.354 1.5,0 1.5,-0.9258 0,-0.825 -0.6112,-1.7331 -1.3574,-2.0195 -0.2084,-0.08 -0.4559,-0.1196 -0.730499,-0.123 z m -130.613297,1.0722 c 0.1602,0.01 0.305,0.035 0.4336,0.084 1.4176,0.544 1.3643,0.7499 -0.4043,1.5391 -1.8733,0.8359 -5.3281,6.5083 -5.3281,8.748 0,0.5202 1.8866,1.9072 4.1934,3.084 3.2949,1.6811 4.5781,1.901 5.9863,1.0215 2.6812,-1.6744 4.3401,-1.4505 2.8203,0.3808 -0.7952,0.9582 -3.0075,1.5 -6.1231,1.5 -2.6827,0 -4.8769,0.45 -4.8769,1 0,0.55 -0.3608,1 -0.8008,1 -1.4131,0 -3.1992,-2.3463 -3.1992,-4.2011 0,-0.99 -0.6489,-1.7989 -1.4414,-1.7989 -4.0727,0 -2.2242,-5.008 3.5801,-9.7011 2.1765,-1.7599 4.0391,-2.7104 5.1601,-2.6563 z m 46.1113,3.5 c 0.4089,-0.013 0.9161,-2e-4 1.5215,0.049 1.6119,0.1228 2.6632,0.6562 2.336,1.1856 -0.3436,0.556 0.1223,0.6858 1.1054,0.3086 1.0541,-0.4045 1.919,-0.089 2.271497,0.8301 0.3131,0.8157 1.4218,1.4843 2.4629,1.4843 1.0412,0 1.8926,0.45 1.8926,1 0,0.55 -0.1125,0.9507 -0.25,0.8887 -0.1375,-0.061 -3.0625,-1.0661 -6.499997,-2.2305 -5.8125,-1.9688 -7.7025,-3.4283 -4.8399,-3.5156 z m 156.648496,11.8574 c -0.5824,0 -1.0586,0.45 -1.0586,1 0,0.55 0.1988,1 0.4414,1 0.2425,0 0.7187,-0.45 1.0586,-1 0.3399,-0.55 0.1411,-1 -0.4414,-1 z m -94.322299,18.1602 c 1.5486,-0.043 2.2637,0.3502 2.2637,1.1641 0,1.4019 -4.6913,6.2664 -5.8301,6.0449 -0.3682,-0.072 -1.7111,0.2659 -2.9844,0.75 -1.2733,0.4841 -2.856,0.8808 -3.5175,0.8808 -0.6615,0 -2.7704,1.064 -4.6856,2.3653 -1.9151,1.3012 -4.9395,2.685 -6.7207,3.0761 -1.7812,0.3911 -3.4948,1.1272 -3.8086,1.6348 -0.3137,0.5077 -1.8456,0.9238 -3.4043,0.9238 -1.5966,0 -3.0858,0.6549 -3.4101,1.5 -0.7001,1.8245 -5.718,1.9902 -7.5684,0.25 -1.0928,-1.0278 -1.2126,-0.7612 -0.6797,1.5 0.6069,2.5749 0.4383,2.75 -2.6484,2.75 -4.8251,0 -9.1053,-3.2617 -11.8086,-9 -0.647697,-1.375 -1.736697,-3.625 -2.419897,-5 -0.6833,-1.375 -1.5462,-3.7753 -1.918,-5.3339 -0.7172,-3.0068 0.022,-2.9785 3.6543,0.1406 0.962497,0.8266 1.749997,1.1522 1.749997,0.7246 0,-0.4275 0.6789,-0.2134 1.5078,0.4746 1.0329,0.8572 5.5174,1.248 14.25,1.248 13.1684,0 17.6047,-0.4191 22.7422,-2.1367 7.7592,-2.594 12.6554,-3.8845 15.2363,-3.957 z m -58.388697,15.3769 c 0.5125,0.052 1.1098,0.6502 2.1875,1.9043 1.208297,1.4062 2.708597,2.5586 3.332097,2.5586 0.6235,0 1.1328,0.4171 1.1328,0.9278 0,0.5107 0.6758,1.6036 1.5019,2.4297 1.3359,1.3359 1.1977,1.713 -1.25,3.3984 -5.060897,3.4847 -9.049397,4.6559 -10.828097,3.1797 -1.2731,-1.0563 -1.7279,-1.0629 -2.3652,-0.031 -0.845,1.3673 -7.0586003,2.2114 -7.0586003,0.959 0,-0.5684 2.9983,-6.2741 4.5430003,-8.6445 0.1001,-0.1537 1.642,1.0838 3.4257,2.75 1.7836,1.6662 4.0949,3.0312 5.1368,3.0312 1.9489,0 2.4672,-1.0952 1.1445,-2.4179 -0.4125,-0.4125 -0.783,-1.0494 -0.8223,-1.416 -0.039,-0.3667 -0.6674,-1.8906 -1.3965,-3.3868 -1.0964,-2.2502 -1.0985,-2.9944 -0.01,-4.3066 0.4428,-0.5336 0.7708,-0.8539 1.1113,-0.9238 0.071,-0.015 0.1416,-0.019 0.2148,-0.012 z m 142.210996,2.4629 c 0.2426,0 0.4414,0.45 0.4414,1 0,0.55 -0.4762,1 -1.0586,1 -0.5825,0 -0.7813,-0.45 -0.4414,-1 0.3399,-0.55 0.8161,-1 1.0586,-1 z m -73.595699,0.041 c -0.7042,0.2096 -1.7435,2.0696 -2.5996,5.4257 -0.6781,2.6584 -1.6127,5.104 -2.0762,5.4336 -0.4636,0.3296 -1.6697,2.6246 -2.6816,5.0996 -1.0118,2.475 -2.7278,6.2075 -3.8125,8.295 -1.0847,2.0875 -1.7211,4.45 -1.4141,5.25 0.7322,1.9085 2.6211,1.8758 2.6211,-0.045 0,-0.825 0.34,-1.5 0.7558,-1.5 0.4158,0 1.3361,-1.4625 2.045,-3.25 1.317,-3.3211 4.7508,-10.9731 6.2168,-13.8535 0.4487,-0.8817 1.1374,-3.7509 1.5312,-6.3769 0.4868,-3.2461 0.1183,-4.6882 -0.5859,-4.4785 z m -29.7637,1.7148 c 0.5552,-0.016 1.3306,0.3001 2.252,0.9922 1.5698,1.1792 1.96,1.9917 1.1914,2.4863 -1.8497,1.1903 -3.3861,0.8773 -4.0391,-0.8242 -0.6425,-1.6744 -0.3295,-2.6269 0.5957,-2.6543 z m -7.5156,2.0488 0,0 c 2.1974,0.1544 4.7287,3.1843 5.7168,7.4433 0.7036,3.0328 -0.4478,3.6006 -2.4375,1.2032 -0.7055,-0.85 -1.8233,-1.3369 -2.4824,-1.084 -1.2336,0.4734 -3.7209,-5.7969 -2.7032,-6.8145 0.4444,-0.4444 0.9448,-0.6821 1.4727,-0.7402 0.143,-0.016 0.2871,-0.018 0.4336,-0.01 z m -5.5176,2.9121 c 1.2207,0.1033 1.834,1.0431 1.834,2.8164 0,1.3019 0.6937,2.7544 1.541,3.2286 0.9345,0.5229 1.2854,1.527 0.8926,2.5507 -0.8108,2.113 -2.0364,2.1659 -2.8203,0.1231 -0.9201,-2.3977 -2.4078,-0.8076 -1.8711,2 0.3133,1.6389 -0.3265,3.4997 -1.8828,5.4687 -1.2975,1.6415 -2.8257,3.0081 -3.3946,3.0391 -1.8621,0.1 -4.2306,-5.3534 -4.2109,-9.6934 0.024,-5.3721 1.517,-5.5301 2.3613,-0.25 0.3518,2.2 0.9428,4 1.3125,4 2.5222,0 4.2266,-6.1686 2.0723,-7.5 -1.7864,-1.1041 -1.0416,-3.9733 1.3144,-5.0644 1.1681,-0.541 2.1192,-0.7807 2.8516,-0.7188 z m 120.917999,2.6524 c 0.4454,0.025 0.846,0.1604 1.1211,0.4355 1.0644,1.0644 -0.7409,6.1953 -2.1797,6.1953 -0.5637,0 -1.0254,0.7358 -1.0254,1.6348 0,2.4014 -11.7294,13.5709 -13.793,13.1348 -0.9431,-0.1993 -2.2512,0.5539 -2.9219,1.6836 -0.6943,1.1695 -1.23,1.4703 -1.25,0.7011 -0.047,-1.7859 3.5576,-6.7961 8.1329,-11.3027 2.0367,-2.0061 3.4328,-3.9186 3.1015,-4.25 -0.3314,-0.3314 -0.037,-0.6016 0.6543,-0.6016 1.4556,0 4.994,-3.9592 5.043,-5.6425 0.033,-1.1397 1.781,-2.0626 3.1172,-1.9883 z m -134.871099,3.0644 c 0.4762,0.01 0.7871,1.1545 0.7871,3.0078 0,1.9574 -0.1506,3.5586 -0.334,3.5586 -1.7629,0 -2.3238,-5.4754 -0.666,-6.5 0.074,-0.046 0.1449,-0.068 0.2129,-0.066 z m 109.845699,2.5664 c -0.5824,0 -1.0586,0.45 -1.0586,1 0,0.55 0.1988,1 0.4414,1 0.2425,0 0.7187,-0.45 1.0586,-1 0.3399,-0.55 0.1411,-1 -0.4414,-1 z m -134.9062963,3.0098 c 0.8134,0.027 1.8132,0.7511 2.1368,1.9883 0.2875,1.0995 0.1876,2.2073 -0.2227,2.4609 -0.9928,0.6136 -3.0664,-1.5236 -3.0664,-3.1601 0,-0.9088 0.5196,-1.3099 1.1523,-1.2891 z m 9.4942003,16.0801 -0.074,3.4512 c -0.061,2.8909 -0.4382,3.455 -2.3223,3.455 -2.8687,0 -2.8485,-1.2485 0.072,-4.4004 l 2.3242,-2.5058 z m 141.124996,3.9922 c 0.2428,0 0.4933,0.02 0.7363,0.068 1.4763,0.291 1.2186,0.8851 -1.5605,3.5996 -1.8299,1.7875 -3.6912,3.25 -4.1368,3.25 -0.4456,0 -1.6514,0.7875 -2.6797,1.75 -5.6947,5.3304 -8.0485,7.25 -8.8867,7.25 -0.5142,0 -1.7486,0.9 -2.7441,2 -0.9955,1.1 -2.4345,2 -3.1973,2 -0.7628,0 -2.3525,0.9 -3.5332,2 -2.5579,2.3831 -3.7695,2.5438 -3.7695,0.5 0,-0.825 0.3693,-1.5 0.8203,-1.5 0.451,0 2.6943,-1.6065 4.9863,-3.5683 2.2919,-1.9619 4.5923,-3.3032 5.1114,-2.9824 0.519,0.3208 1.2268,0.1254 1.5722,-0.4336 0.3455,-0.559 0.1961,-1.0157 -0.332,-1.0157 -1.5727,0 4.0989,-5.5105 7.3418,-7.1328 4.8327,-2.4174 7.9545,-4.3071 8.6191,-5.2168 0.2556,-0.3502 0.9242,-0.5641 1.6524,-0.5683 z m 6.1738,6.0234 0,0 c 0.154,0.049 -0.3133,0.579 -1.3496,1.7461 -2.1163,2.3835 -2.5957,2.6022 -2.5957,1.1816 0,-0.5307 1.0125,-1.4971 2.25,-2.1465 0.8392,-0.4404 1.3636,-0.7148 1.5918,-0.7734 0.048,-0.012 0.082,-0.015 0.1035,-0.01 z m -191.759796,8.4277 c 1.6484,0.08 3.8145,2.2111 3.8145,4.0372 0,1.8134 0.015,1.8195 -3.2031,-1.0137 -2.0459,-1.8014 -2.357,-2.5123 -1.2793,-2.9258 0.2065,-0.079 0.4324,-0.1088 0.6679,-0.098 z m 178.873096,2.4668 c 0.5176,0 0.9414,0.45 0.9414,1 0,0.55 -0.7012,1 -1.5586,1 -0.858,0 -1.2813,-0.45 -0.9414,-1 0.3399,-0.55 1.0411,-1 1.5586,-1 z m -2.0391,3.1973 c 0.6102,0 0.618,0.5907 -0.3398,1.8359 -1.8472,2.4016 -8.5531,5.9807 -9.211,4.9161 -0.3229,-0.5224 -0.1258,-0.9493 0.4375,-0.9493 0.5633,0 2.608,-1.3909 4.543,-3.0898 2.0063,-1.7615 3.7857,-2.7185 4.5703,-2.7129 z m -165.519496,4.1582 c 1.3746,-0.079 2.5,0.2582 2.5,0.75 0,0.4918 -1.125,0.8945 -2.5,0.8945 -3.2579,0 -3.2579,-1.4565 0,-1.6445 z m 125.056596,7.3359 c 1.2635,-0.01 1.3159,0.5788 0.1407,1.754 -0.6637,0.6632 -2.6661,1.4984 -4.4512,1.8554 -4.831799,0.9664 -4.185499,-1.6366 0.7324,-2.9492 1.6267,-0.4342 2.8199,-0.6549 3.5781,-0.6602 z m -98.0643963,3.8301 c 0.6193003,0.046 1.1340003,0.5094 1.7246003,1.4551 0.7723,1.2367 2.3366,2.0234 4.0234,2.0234 1.5177,0 2.7598,0.4762 2.7598,1.0586 0,0.5826 0.3676,0.8322 0.8164,0.5547 0.4489,-0.2774 2.5864,0.1257 4.749997,0.8965 2.1637,0.7708 3.7086,1.4517 3.4336,1.5137 -3.2817,0.7349 -10.999997,0.5187 -10.999997,-0.3086 0,-0.5763 -0.3077,-0.7415 -0.6816,-0.3672 -0.3747,0.3744 -1.9516,-0.5382 -3.5059,-2.0273 -1.9867003,-1.904 -3.1392003,-2.394 -3.8828003,-1.6504 -0.7436,0.7436 -0.6636,1.4691 0.2695,2.4433 0.73,0.7621 2.1178003,2.6242 3.0859003,4.1367 1.9598,3.0621 1.0315,3.7162 -1.4199003,1 -0.8686,-0.9625 -2.4315,-2.5225 -3.4726,-3.4668 -1.0411,-0.9444 -3.0127,-2.862 -4.3809,-4.2597 l -2.48629999,-2.541 3.48629999,0.4082 c 1.9182,0.2242 4.2649,-0.01 5.2149,-0.5157 0.4844,-0.2587 0.894,-0.381 1.2656,-0.3535 z m -15.1582,1.1641 2.3476,2.7285 c 2.58590001,3.0063 2.2926,4.5859 -0.8515,4.5859 -1.8329,0 -1.9752,0.4009 -1.3321,3.75 0.396,2.0625 0.8041,4.2 0.9082,4.75 0.1041,0.55 0.7316,1.9822 1.3926,3.1836 0.6611,1.2013 1.2012,2.6638 1.2012,3.25 0,0.5861 -0.45,1.0664 -1,1.0664 -0.55,0 -1,-0.675 -1,-1.5 0,-0.825 -0.4761,-1.5 -1.0586,-1.5 -0.5824,0 -0.8126,-0.3979 -0.5117,-0.8847 0.7287,-1.1791 -1.38,-7.1153 -2.5274,-7.1153 -1.4437,0 -1.0451,-2.1867 0.7637,-4.1855 0.9167,-1.0129 1.668,-3.2552 1.668,-4.9844 l 0,-3.1445 z m 34.2772973,5.6582 c 0.1196,0.02 0.2512,0.071 0.3887,0.1562 0.55,0.3399 1,0.8161 1,1.0586 0,0.2426 -0.45,0.4414 -1,0.4414 -0.55,0 -1,-0.4762 -1,-1.0586 0,-0.4368 0.2527,-0.6579 0.6113,-0.5976 z m -30.1874973,1.957 c 0.62700001,-0.058 3.253,2.0466 6.0938,4.9102 4.0972,4.13 5.3433,6.0333 4.8613,7.4218 -0.5871,1.6922 -0.4968,1.679 0.9551003,-0.1328 0.9044,-1.1285 1.6167,-1.4553 1.6347,-0.75 0.018,0.6875 0.7299,1.25 1.584,1.25 2.068,0 8.6173,4.4961 7.7754,5.3379 -0.3637,0.3638 -1.1483,0.6004 -1.7441,0.5254 -3.7912,-0.4766 -5.584,-1.1372 -5.584,-2.0566 0,-0.6519 -0.5713,-0.5774 -1.5,0.1933 -1.2264,1.0179 -1.5,0.9533 -1.5,-0.3476 0,-0.9469 -0.5619,-1.3739 -1.3887003,-1.0567 -1.7372,0.6667 -7.7939,-5.6224 -7.125,-7.3984 0.2697,-0.7157 0.05,-1.0302 -0.4883,-0.6973 -1.15239999,0.7122 -4.6769,-6.155 -3.6738,-7.1582 0.024,-0.024 0.058,-0.037 0.1,-0.041 z m 70.1054973,11.336 c 0.2988,0.013 0.627,0.051 0.9707,0.1171 1.375,0.2629 2.5,0.6505 2.5,0.8614 0,0.2109 -1.125,0.3847 -2.5,0.3847 -1.375,0 -2.5,-0.3876 -2.5,-0.8613 0,-0.3551 0.6328,-0.542 1.5293,-0.5019 z m -34.5293,1.3632 c 0.55,0 1,0.45 1,1 0,0.55 -0.45,1 -1,1 -0.55,0 -1,-0.45 -1,-1 0,-0.55 0.45,-1 1,-1 z m 15.2363,7.7715 c 0.8372,0.011 1.6393,0.086 2.2637,0.2422 0.55,0.1376 4.0375,0.2149 7.75,0.1699 3.7125,-0.045 6.75,0.3157 6.75,0.8008 0,0.4851 -1.2375,0.8811 -2.75,0.8711 -1.5125,-0.01 -4.8875,0.2214 -7.5,0.5039 -3.2815,0.3548 -4.755,0.1457 -4.7656,-0.6738 -0.01,-0.7876 -0.2622,-0.8345 -0.75,-0.1406 -0.8112,1.1538 -4.1965,0.7709 -5.6836,-0.6426 -0.6577,-0.6248 2.1741,-1.1641 4.6855,-1.1309 z m 22.9219,0.1836 c 0.7275,-0.034 1.1341,0.08 0.7578,0.4043 -0.2291,0.1977 -1.766,0.6602 -3.416,1.0293 -2.1909,0.4901 -2.5954,0.3976 -1.5,-0.3437 0.844,-0.5712 2.9457,-1.0339 4.1582,-1.0899 z"
       id="path5074-0" />
  </g>
</svg>
